<mxfile host="Electron" modified="2024-01-23T23:25:55.509Z" agent="Mozilla/5.0 (Macintosh; Intel Mac OS X 10_15_7) AppleWebKit/537.36 (KHTML, like Gecko) draw.io/22.1.18 Chrome/120.0.6099.199 Electron/28.1.2 Safari/537.36" version="22.1.18" etag="i_dpsrZxr-2hwhaXDLTA" type="device">
  <diagram name="Page 1" id="Page_1">
    <mxGraphModel dx="1853" dy="694" grid="1" gridSize="10" guides="1" tooltips="1" connect="1" arrows="1" fold="1" page="1" pageScale="1" pageWidth="827" pageHeight="1169" math="0" shadow="0">
      <root>
        <mxCell id="0" />
        <mxCell id="1" parent="0" />
        <UserObject label="" tags="Background" id="2">
          <mxCell style="vsdxID=1;fillColor=none;gradientColor=none;fillOpacity=0;strokeColor=none;spacingTop=-3;spacingBottom=-3;spacingLeft=-3;spacingRight=-3;points=[[0,0.5,0],[1,0.5,0],[0.5,1,0],[0.5,0,0]];labelBackgroundColor=none;rounded=1;html=1;whiteSpace=wrap;" parent="1" vertex="1">
            <mxGeometry x="241" y="812" width="914" height="1562" as="geometry" />
          </mxCell>
        </UserObject>
        <mxCell id="3" style="vsdxID=2;fillColor=#000000;gradientColor=none;fillOpacity=0;shape=stencil(vVTLkoIwEPyaHLHycsWzuj/gF6SWEVJGQoWsol+/gUGWiLin9Ra6O9PpqRmI2NSFqoBwWntnj3DRmS+I2BLOdVmA0z6ciNgRsTlYB7mz32WG35UKSk47BDK8w1o1p8p97fUNEKMLwVZLJPDmyZ5bx6bnkbre1Vx2wCdqQ6nWpBlq9ZXcrx6BQSF5XLCnE9XoOnHWK69tGXFGuRyS4JQcjMojqr4AVCOYjd9mdDnKsV4vlukT65kgMp0ESaMkjM505g1ZHr1DttXHyzRskkZGaabdGTz+P85kKO7ec0Mm/xiymea8I8rLbQmHbi1xYbUxuNVj/nGNA4S/ALH7AQ==);strokeColor=#3a414a;spacingTop=-3;spacingBottom=-3;spacingLeft=-3;spacingRight=-3;points=[[0,0.5,0],[1,0.5,0],[0.5,1,0],[0.5,0,0]];labelBackgroundColor=none;rounded=1;html=1;whiteSpace=wrap;" parent="2" vertex="1">
          <mxGeometry width="914" height="1562" as="geometry" />
        </mxCell>
        <mxCell id="4" value="&lt;div style=&quot;font-size: 1px&quot;&gt;&lt;p style=&quot;text-align:center;margin-left:0;margin-right:0;margin-top:0px;margin-bottom:0px;text-indent:0;vertical-align:middle;direction:ltr;&quot;&gt;&lt;font style=&quot;font-size:14.11px;font-family:Arial;color:#3a414a;direction:ltr;letter-spacing:0px;line-height:100%;opacity:1&quot;&gt;Use case daigram for the Devarena system developer&lt;/font&gt;&lt;/p&gt;&lt;/div&gt;" style="text;vsdxID=1;fillColor=none;gradientColor=none;fillOpacity=0;strokeColor=none;spacingTop=-3;spacingBottom=-3;spacingLeft=-3;spacingRight=-3;points=[[0,0.5,0],[1,0.5,0],[0.5,1,0],[0.5,0,0]];labelBackgroundColor=none;rounded=1;html=1;whiteSpace=wrap;verticalAlign=middle;align=center;overflow=width;;html=1;" parent="2" vertex="1">
          <mxGeometry x="5.08" y="4.98" width="904.24" height="15.24" as="geometry" />
        </mxCell>
        <UserObject label="" tags="Background" id="5">
          <mxCell style="vsdxID=3;fillColor=none;gradientColor=none;strokeColor=none;spacingTop=-3;spacingBottom=-3;spacingLeft=-3;spacingRight=-3;points=[[0,0.5,0],[1,0.5,0],[0.5,1,0],[0.5,0,0],[0.47,2.17,0],[0.44,-0.13,0],[0.44,-0.71,0]];labelBackgroundColor=none;rounded=1;html=1;whiteSpace=wrap;" parent="1" vertex="1">
            <mxGeometry x="25" y="1219" width="203" height="215" as="geometry" />
          </mxCell>
        </UserObject>
        <mxCell id="6" style="vsdxID=4;fillColor=#FFFFFF;gradientColor=none;shape=stencil(hVNbUsMwDDyNfzWylBefTCkX4ASZxhAPpem4KaScHjfSUIckxV/yrtZay7Lhzamtj84QnvrQvbsv3/St4SdD5A+tC76PkeGt4c1rF9xb6M6HRvbHOmYSjohrRGOv2YR12L34bycYAtsyF0KUH93nteIgfEGQZUJf9BQL5Qg8S/7uHERg5wqFbAU2x2QVwg8kfF5AVT4kSw1dlCcGXuIHVj1qPt/yq5tHfFywmTFYntpcLaM2uIRiamz1YjxT8FL3Fp0lIkVyIE6rZFNf6VUUwvsNwn8srD6InR5P8yen+5Z5rljvTIzHOZYJ9/u9fIPf0YvB37mPkPwZ3v4A);strokeColor=#3a414a;spacingTop=-3;spacingBottom=-3;spacingLeft=-3;spacingRight=-3;points=[[0,0.5,0],[1,0.5,0],[0.5,1,0],[0.5,0,0]];labelBackgroundColor=none;rounded=1;html=1;whiteSpace=wrap;" parent="5" vertex="1">
          <mxGeometry width="203" height="215" as="geometry" />
        </mxCell>
        <mxCell id="7" style="vsdxID=5;fillColor=#FFFFFF;gradientColor=none;shape=stencil(tZLbjoIwEIafppc0bYeKXnt4AZ+gWUZoREpKVfTptzCSiKeYTfau8//fdA4ZBsu2NA0yJdrg3R7PNg8lgxVTytYlehvii8GawXLnPBbeHeuc4sZEUolBwZxyZE8rYfzP1l6RNMFBZpoMyjy4U1+xI18L8i4UKuAwH5QN0ZWt39M65aDv6Vi6b+pGp1wD8f4yKmpGyvih5Gk2/TPj4yBdYjrbJt4FE6yrbwORVxlfYBLrJbvKFBOrPSM2T/LLeaSYDrSAseXNX5b1kdYzLtX7Vv6xkSkMmovF9yt5wuNjOL4hoLu99x4PNUp05LD+BQ==);strokeColor=#3a414a;spacingTop=-3;spacingBottom=-3;spacingLeft=-3;spacingRight=-3;points=[[0,0.5,0],[1,0.5,0],[0.5,1,0],[0.5,0,0]];labelBackgroundColor=none;rounded=1;html=1;whiteSpace=wrap;" parent="5" vertex="1">
          <mxGeometry width="203" height="215" as="geometry" />
        </mxCell>
        <mxCell id="8" style="vsdxID=6;fillColor=#FFFFFF;gradientColor=none;shape=stencil(vZPBcoMgEIafhqMOQhLxnKYv0Cdg4kaZWHGQNrZPH8yqAyTmqCfY/d2fb2EJP/a17IAw2lujr3BTpa0J/yCMqbYGo6xbEX4i/HjRBiqjf9oS9510SkYfESjxn2xUMyrN+Uv9A8Z4KmjhfwcUYZVv/Tu6D6ilmPqbqqU5aj9R68qOhsOc3ecoN4t+JzCySEQeVJzqD4kcVJ8YbaVVug1yjTQVJM4quTSyClL9DaDzwpl/uEa1Hkgh0oy/sH5JwlK6j0kKHpLQldZswBJ7Oza2e3cvgsc0OQtonruzeGyAEz+K2XuFZmL1aLJDQLPWnQ1Y3s+LWzyGdN7EE+xCOP38dAc=);strokeColor=#3a414a;spacingTop=-3;spacingBottom=-3;spacingLeft=-3;spacingRight=-3;points=[[0,0.5,0],[1,0.5,0],[0.5,1,0],[0.5,0,0]];labelBackgroundColor=none;rounded=1;html=1;whiteSpace=wrap;" parent="5" vertex="1">
          <mxGeometry width="203" height="215" as="geometry" />
        </mxCell>
        <mxCell id="9" value="&lt;div style=&quot;font-size: 1px&quot;&gt;&lt;p style=&quot;text-align:center;margin-left:0;margin-right:0;margin-top:0px;margin-bottom:0px;text-indent:0;vertical-align:middle;direction:ltr;&quot;&gt;&lt;font style=&quot;font-size:14.11px;font-family:Arial;color:#3a414a;direction:ltr;letter-spacing:0px;line-height:100%;opacity:1&quot;&gt;Developer&lt;/font&gt;&lt;/p&gt;&lt;/div&gt;" style="text;vsdxID=3;fillColor=none;gradientColor=none;strokeColor=none;spacingTop=-3;spacingBottom=-3;spacingLeft=-3;spacingRight=-3;points=[[0,0.5,0],[1,0.5,0],[0.5,1,0],[0.5,0,0],[0.47,2.17,0],[0.44,-0.13,0],[0.44,-0.71,0]];labelBackgroundColor=none;rounded=1;html=1;whiteSpace=wrap;verticalAlign=middle;align=center;overflow=width;;html=1;" parent="5" vertex="1">
          <mxGeometry x="-50.8" y="201.03" width="304.8" height="13.97" as="geometry" />
        </mxCell>
        <UserObject label="" tags="Background" id="10">
          <mxCell style="vsdxID=7;fillColor=none;gradientColor=none;strokeColor=none;spacingTop=-3;spacingBottom=-3;spacingLeft=-3;spacingRight=-3;points=[[0,0.5,0],[1,0.5,0],[0.5,1,0],[0.5,0,0]];labelBackgroundColor=none;rounded=1;html=1;whiteSpace=wrap;" parent="1" vertex="1">
            <mxGeometry x="317" y="825" width="101" height="76" as="geometry" />
          </mxCell>
        </UserObject>
        <mxCell id="11" style="vsdxID=8;fillColor=#FFFFFF;gradientColor=none;shape=stencil(hVLRDoIwDPyavZLSiouPBvUH/AICUxYVyAAFv95JiW5TI0/t7cpdmxOUtmXWKIHQdqY+qZsuulLQRiDqqlRGd7YStBWUHmqjjqbuq4L7JrNMhAlRBc/ETzZCZvK9vivGIKJYJvzAk5f6+lQc5hkAfhy5T7jdMTfvDZPjkD0DUkbJiqEBX9CSZhYGYwN5KjCST5hkYf1FGTEi6Wu//zrLgK/qeiOfQZ/LflUNtrUmFrByPukbcE36nn4t/s+Ae0zf0xDedsQ/Jikc+HUFW0/x4uDp85nT+UqFLcI4WoijTNsH);strokeColor=#3a414a;spacingTop=-3;spacingBottom=-3;spacingLeft=-3;spacingRight=-3;points=[[0,0.5,0],[1,0.5,0],[0.5,1,0],[0.5,0,0]];labelBackgroundColor=none;rounded=1;html=1;whiteSpace=wrap;" parent="10" vertex="1">
          <mxGeometry width="101" height="76" as="geometry" />
        </mxCell>
        <mxCell id="12" value="&lt;div style=&quot;font-size: 1px&quot;&gt;&lt;p style=&quot;text-align:center;margin-left:0;margin-right:0;margin-top:0px;margin-bottom:0px;text-indent:0;vertical-align:middle;direction:ltr;&quot;&gt;&lt;font style=&quot;font-size:11.29px;font-family:Arial;color:#000000;direction:ltr;letter-spacing:0px;line-height:100%;opacity:1&quot;&gt;login&lt;/font&gt;&lt;/p&gt;&lt;/div&gt;" style="text;vsdxID=7;fillColor=none;gradientColor=none;strokeColor=none;spacingTop=-3;spacingBottom=-3;spacingLeft=-3;spacingRight=-3;points=[[0,0.5,0],[1,0.5,0],[0.5,1,0],[0.5,0,0]];labelBackgroundColor=none;rounded=1;html=1;whiteSpace=wrap;verticalAlign=middle;align=center;overflow=width;;html=1;" parent="10" vertex="1">
          <mxGeometry y="-0.2" width="101.6" height="76.2" as="geometry" />
        </mxCell>
        <UserObject label="" tags="Background" id="112">
          <mxCell style="vsdxID=9;edgeStyle=none;startArrow=none;endArrow=none;startSize=5;endSize=5;strokeColor=#3a414a;spacingTop=-3;spacingBottom=-3;spacingLeft=-3;spacingRight=-3;verticalAlign=middle;html=1;labelBackgroundColor=none;rounded=1;" parent="1" edge="1">
            <mxGeometry relative="1" as="geometry">
              <mxPoint x="-1" as="offset" />
              <Array as="points" />
              <mxPoint x="128" y="1313" as="sourcePoint" />
              <mxPoint x="317" y="863" as="targetPoint" />
            </mxGeometry>
          </mxCell>
        </UserObject>
        <UserObject label="" tags="Background" id="13">
          <mxCell style="vsdxID=10;fillColor=none;gradientColor=none;strokeColor=none;spacingTop=-3;spacingBottom=-3;spacingLeft=-3;spacingRight=-3;points=[[0,0.5,0],[1,0.5,0],[0.5,1,0],[0.5,0,0],[1.62,1,0]];labelBackgroundColor=none;rounded=1;html=1;whiteSpace=wrap;" parent="1" vertex="1">
            <mxGeometry x="317" y="1104" width="101" height="76" as="geometry" />
          </mxCell>
        </UserObject>
        <mxCell id="14" style="vsdxID=11;fillColor=#FFFFFF;gradientColor=none;shape=stencil(hVLRDoIwDPyavZLSiouPBvUH/AICUxYVyAAFv95JiW5TI0/t7cpdmxOUtmXWKIHQdqY+qZsuulLQRiDqqlRGd7YStBWUHmqjjqbuq4L7JrNMhAlRBc/ETzZCZvK9vivGIKJYJvzAk5f6+lQc5hkAfhy5T7jdMTfvDZPjkD0DUkbJiqEBX9CSZhYGYwN5KjCST5hkYf1FGTEi6Wu//zrLgK/qeiOfQZ/LflUNtrUmFrByPukbcE36nn4t/s+Ae0zf0xDedsQ/Jikc+HUFW0/x4uDp85nT+UqFLcI4WoijTNsH);strokeColor=#3a414a;spacingTop=-3;spacingBottom=-3;spacingLeft=-3;spacingRight=-3;points=[[0,0.5,0],[1,0.5,0],[0.5,1,0],[0.5,0,0]];labelBackgroundColor=none;rounded=1;html=1;whiteSpace=wrap;" parent="13" vertex="1">
          <mxGeometry width="101" height="76" as="geometry" />
        </mxCell>
        <mxCell id="15" value="&lt;div style=&quot;font-size: 1px&quot;&gt;&lt;p style=&quot;text-align:center;margin-left:0;margin-right:0;margin-top:0px;margin-bottom:0px;text-indent:0;vertical-align:middle;direction:ltr;&quot;&gt;&lt;font style=&quot;font-size:11.29px;font-family:Arial;color:#000000;direction:ltr;letter-spacing:0px;line-height:100%;opacity:1&quot;&gt;Check in&lt;/font&gt;&lt;/p&gt;&lt;/div&gt;" style="text;vsdxID=10;fillColor=none;gradientColor=none;strokeColor=none;spacingTop=-3;spacingBottom=-3;spacingLeft=-3;spacingRight=-3;points=[[0,0.5,0],[1,0.5,0],[0.5,1,0],[0.5,0,0],[1.62,1,0]];labelBackgroundColor=none;rounded=1;html=1;whiteSpace=wrap;verticalAlign=middle;align=center;overflow=width;;html=1;" parent="13" vertex="1">
          <mxGeometry y="-0.2" width="101.6" height="76.2" as="geometry" />
        </mxCell>
        <UserObject label="" tags="Background" id="16">
          <mxCell style="vsdxID=12;fillColor=none;gradientColor=none;strokeColor=none;spacingTop=-3;spacingBottom=-3;spacingLeft=-3;spacingRight=-3;points=[[0,0.5,0],[1,0.5,0],[0.5,1,0],[0.5,0,0]];labelBackgroundColor=none;rounded=1;html=1;whiteSpace=wrap;" parent="1" vertex="1">
            <mxGeometry x="571" y="1213" width="101" height="76" as="geometry" />
          </mxCell>
        </UserObject>
        <mxCell id="17" style="vsdxID=13;fillColor=#FFFFFF;gradientColor=none;shape=stencil(hVLRDoIwDPyavZLSiouPBvUH/AICUxYVyAAFv95JiW5TI0/t7cpdmxOUtmXWKIHQdqY+qZsuulLQRiDqqlRGd7YStBWUHmqjjqbuq4L7JrNMhAlRBc/ETzZCZvK9vivGIKJYJvzAk5f6+lQc5hkAfhy5T7jdMTfvDZPjkD0DUkbJiqEBX9CSZhYGYwN5KjCST5hkYf1FGTEi6Wu//zrLgK/qeiOfQZ/LflUNtrUmFrByPukbcE36nn4t/s+Ae0zf0xDedsQ/Jikc+HUFW0/x4uDp85nT+UqFLcI4WoijTNsH);strokeColor=#3a414a;spacingTop=-3;spacingBottom=-3;spacingLeft=-3;spacingRight=-3;points=[[0,0.5,0],[1,0.5,0],[0.5,1,0],[0.5,0,0]];labelBackgroundColor=none;rounded=1;html=1;whiteSpace=wrap;" parent="16" vertex="1">
          <mxGeometry width="101" height="76" as="geometry" />
        </mxCell>
        <mxCell id="18" value="&lt;div style=&quot;font-size: 1px&quot;&gt;&lt;p style=&quot;text-align:center;margin-left:0;margin-right:0;margin-top:0px;margin-bottom:0px;text-indent:0;vertical-align:middle;direction:ltr;&quot;&gt;&lt;font style=&quot;font-size:11.29px;font-family:Arial;color:#000000;direction:ltr;letter-spacing:0px;line-height:100%;opacity:1&quot;&gt;Generate Performance Matric&lt;/font&gt;&lt;/p&gt;&lt;/div&gt;" style="text;vsdxID=12;fillColor=none;gradientColor=none;strokeColor=none;spacingTop=-3;spacingBottom=-3;spacingLeft=-3;spacingRight=-3;points=[[0,0.5,0],[1,0.5,0],[0.5,1,0],[0.5,0,0]];labelBackgroundColor=none;rounded=1;html=1;whiteSpace=wrap;verticalAlign=middle;align=center;overflow=width;;html=1;" parent="16" vertex="1">
          <mxGeometry y="-0.2" width="101.6" height="76.2" as="geometry" />
        </mxCell>
        <UserObject label="" tags="Background" id="113">
          <mxCell style="vsdxID=14;edgeStyle=none;startArrow=none;endArrow=none;startSize=5;endSize=5;strokeColor=#3a414a;spacingTop=-3;spacingBottom=-3;spacingLeft=-3;spacingRight=-3;verticalAlign=middle;html=1;labelBackgroundColor=none;rounded=1;" parent="1" edge="1">
            <mxGeometry relative="1" as="geometry">
              <mxPoint x="-1" y="-1" as="offset" />
              <Array as="points" />
              <mxPoint x="128" y="1313" as="sourcePoint" />
              <mxPoint x="317" y="1143" as="targetPoint" />
            </mxGeometry>
          </mxCell>
        </UserObject>
        <UserObject label="" tags="Background" id="114">
          <mxCell style="vsdxID=15;edgeStyle=none;startArrow=none;endArrow=none;startSize=5;endSize=5;strokeColor=#3a414a;spacingTop=-3;spacingBottom=-3;spacingLeft=-3;spacingRight=-3;verticalAlign=middle;html=1;labelBackgroundColor=none;rounded=1;" parent="1" edge="1">
            <mxGeometry relative="1" as="geometry">
              <mxPoint x="-1" as="offset" />
              <Array as="points" />
              <mxPoint x="128" y="1315" as="sourcePoint" />
              <mxPoint x="304" y="1251" as="targetPoint" />
            </mxGeometry>
          </mxCell>
        </UserObject>
        <UserObject label="" tags="Background" id="19">
          <mxCell style="vsdxID=16;fillColor=none;gradientColor=none;strokeColor=none;spacingTop=-3;spacingBottom=-3;spacingLeft=-3;spacingRight=-3;points=[[0,0.5,0],[1,0.5,0],[0.5,1,0],[0.5,0,0],[0.25,-0.23,0]];labelBackgroundColor=none;rounded=1;html=1;whiteSpace=wrap;" parent="1" vertex="1">
            <mxGeometry x="647" y="965" width="101" height="76" as="geometry" />
          </mxCell>
        </UserObject>
        <mxCell id="20" style="vsdxID=17;fillColor=#FFFFFF;gradientColor=none;shape=stencil(hVLRDoIwDPyavZLSiouPBvUH/AICUxYVyAAFv95JiW5TI0/t7cpdmxOUtmXWKIHQdqY+qZsuulLQRiDqqlRGd7YStBWUHmqjjqbuq4L7JrNMhAlRBc/ETzZCZvK9vivGIKJYJvzAk5f6+lQc5hkAfhy5T7jdMTfvDZPjkD0DUkbJiqEBX9CSZhYGYwN5KjCST5hkYf1FGTEi6Wu//zrLgK/qeiOfQZ/LflUNtrUmFrByPukbcE36nn4t/s+Ae0zf0xDedsQ/Jikc+HUFW0/x4uDp85nT+UqFLcI4WoijTNsH);strokeColor=#3a414a;spacingTop=-3;spacingBottom=-3;spacingLeft=-3;spacingRight=-3;points=[[0,0.5,0],[1,0.5,0],[0.5,1,0],[0.5,0,0]];labelBackgroundColor=none;rounded=1;html=1;whiteSpace=wrap;" parent="19" vertex="1">
          <mxGeometry width="101" height="76" as="geometry" />
        </mxCell>
        <mxCell id="21" value="&lt;div style=&quot;font-size: 1px&quot;&gt;&lt;p style=&quot;text-align:center;margin-left:0;margin-right:0;margin-top:0px;margin-bottom:0px;text-indent:0;vertical-align:middle;direction:ltr;&quot;&gt;&lt;font style=&quot;font-size:11.29px;font-family:Arial;color:#000000;direction:ltr;letter-spacing:0px;line-height:100%;opacity:1&quot;&gt;Validate username and password&lt;/font&gt;&lt;/p&gt;&lt;/div&gt;" style="text;vsdxID=16;fillColor=none;gradientColor=none;strokeColor=none;spacingTop=-3;spacingBottom=-3;spacingLeft=-3;spacingRight=-3;points=[[0,0.5,0],[1,0.5,0],[0.5,1,0],[0.5,0,0],[0.25,-0.23,0]];labelBackgroundColor=none;rounded=1;html=1;whiteSpace=wrap;verticalAlign=middle;align=center;overflow=width;;html=1;" parent="19" vertex="1">
          <mxGeometry y="-0.2" width="101.6" height="76.2" as="geometry" />
        </mxCell>
        <UserObject label="" tags="Background" id="115">
          <mxCell style="vsdxID=18;edgeStyle=none;dashed=1;startArrow=none;endArrow=block;startSize=5;endSize=5;strokeColor=#3a414a;spacingTop=-3;spacingBottom=-3;spacingLeft=-3;spacingRight=-3;verticalAlign=middle;html=1;labelBackgroundColor=#ffffff;rounded=1;" parent="1" edge="1">
            <mxGeometry relative="1" as="geometry">
              <Array as="points" />
              <mxPoint x="419" y="863" as="sourcePoint" />
              <mxPoint x="658" y="979" as="targetPoint" />
            </mxGeometry>
          </mxCell>
        </UserObject>
        <mxCell id="116" value="&lt;div style=&quot;font-size: 1px&quot;&gt;&lt;p style=&quot;text-align:left;margin-left:0;margin-right:0;margin-top:0px;margin-bottom:0px;text-indent:0;vertical-align:middle;direction:ltr;&quot;&gt;&lt;font style=&quot;font-size:11.29px;font-family:Arial;color:#333333;direction:ltr;letter-spacing:0px;line-height:100%;opacity:1&quot;&gt;&lt;b&gt;&amp;lt;&amp;lt;include&amp;gt;&amp;gt;&lt;/b&gt;&lt;/font&gt;&lt;/p&gt;&lt;/div&gt;" style="text;vsdxID=18;edgeStyle=none;dashed=1;startArrow=none;endArrow=block;startSize=5;endSize=5;strokeColor=none;spacingTop=-3;spacingBottom=-3;spacingLeft=-3;spacingRight=-3;verticalAlign=middle;html=1;labelBackgroundColor=#ffffff;rounded=1;align=left;overflow=width;fillColor=none;gradientColor=none;whiteSpace=wrap;;html=1;" parent="115" vertex="1">
          <mxGeometry width="65.77" height="13.54" relative="1" as="geometry">
            <mxPoint x="-15.884999999999998" y="27.23" as="offset" />
          </mxGeometry>
        </mxCell>
        <UserObject label="" tags="Background" id="22">
          <mxCell style="vsdxID=19;fillColor=none;gradientColor=none;strokeColor=none;spacingTop=-3;spacingBottom=-3;spacingLeft=-3;spacingRight=-3;points=[[0,0.5,0],[1,0.5,0],[0.5,1,0],[0.5,0,0]];labelBackgroundColor=none;rounded=1;html=1;whiteSpace=wrap;" parent="1" vertex="1">
            <mxGeometry x="952" y="838" width="101" height="76" as="geometry" />
          </mxCell>
        </UserObject>
        <mxCell id="23" style="vsdxID=20;fillColor=#FFFFFF;gradientColor=none;shape=stencil(hVLRDoIwDPyavZLSiouPBvUH/AICUxYVyAAFv95JiW5TI0/t7cpdmxOUtmXWKIHQdqY+qZsuulLQRiDqqlRGd7YStBWUHmqjjqbuq4L7JrNMhAlRBc/ETzZCZvK9vivGIKJYJvzAk5f6+lQc5hkAfhy5T7jdMTfvDZPjkD0DUkbJiqEBX9CSZhYGYwN5KjCST5hkYf1FGTEi6Wu//zrLgK/qeiOfQZ/LflUNtrUmFrByPukbcE36nn4t/s+Ae0zf0xDedsQ/Jikc+HUFW0/x4uDp85nT+UqFLcI4WoijTNsH);strokeColor=#3a414a;spacingTop=-3;spacingBottom=-3;spacingLeft=-3;spacingRight=-3;points=[[0,0.5,0],[1,0.5,0],[0.5,1,0],[0.5,0,0]];labelBackgroundColor=none;rounded=1;html=1;whiteSpace=wrap;" parent="22" vertex="1">
          <mxGeometry width="101" height="76" as="geometry" />
        </mxCell>
        <mxCell id="24" value="&lt;div style=&quot;font-size: 1px&quot;&gt;&lt;p style=&quot;text-align:center;margin-left:0;margin-right:0;margin-top:0px;margin-bottom:0px;text-indent:0;vertical-align:middle;direction:ltr;&quot;&gt;&lt;font style=&quot;font-size:11.29px;font-family:Arial;color:#000000;direction:ltr;letter-spacing:0px;line-height:100%;opacity:1&quot;&gt;Display login Error &lt;/font&gt;&lt;/p&gt;&lt;/div&gt;" style="text;vsdxID=19;fillColor=none;gradientColor=none;strokeColor=none;spacingTop=-3;spacingBottom=-3;spacingLeft=-3;spacingRight=-3;points=[[0,0.5,0],[1,0.5,0],[0.5,1,0],[0.5,0,0]];labelBackgroundColor=none;rounded=1;html=1;whiteSpace=wrap;verticalAlign=middle;align=center;overflow=width;;html=1;" parent="22" vertex="1">
          <mxGeometry y="-0.2" width="101.6" height="76.2" as="geometry" />
        </mxCell>
        <UserObject label="" tags="Background" id="117">
          <mxCell style="vsdxID=21;edgeStyle=none;dashed=1;startArrow=none;endArrow=block;startSize=5;endSize=5;strokeColor=#3a414a;spacingTop=-3;spacingBottom=-3;spacingLeft=-3;spacingRight=-3;verticalAlign=middle;html=1;labelBackgroundColor=#ffffff;rounded=1;" parent="1" edge="1">
            <mxGeometry relative="1" as="geometry">
              <Array as="points" />
              <mxPoint x="952" y="876" as="sourcePoint" />
              <mxPoint x="419" y="863" as="targetPoint" />
            </mxGeometry>
          </mxCell>
        </UserObject>
        <mxCell id="118" value="&lt;div style=&quot;font-size: 1px&quot;&gt;&lt;p style=&quot;text-align:left;margin-left:0;margin-right:0;margin-top:0px;margin-bottom:0px;text-indent:0;vertical-align:middle;direction:ltr;&quot;&gt;&lt;font style=&quot;font-size:11.29px;font-family:Arial;color:#333333;direction:ltr;letter-spacing:0px;line-height:100%;opacity:1&quot;&gt;&lt;b&gt;&amp;lt;&amp;lt;extend&amp;gt;&amp;gt;&lt;/b&gt;&lt;/font&gt;&lt;/p&gt;&lt;/div&gt;" style="text;vsdxID=21;edgeStyle=none;dashed=1;startArrow=none;endArrow=block;startSize=5;endSize=5;strokeColor=none;spacingTop=-3;spacingBottom=-3;spacingLeft=-3;spacingRight=-3;verticalAlign=middle;html=1;labelBackgroundColor=#ffffff;rounded=1;align=left;overflow=width;fillColor=none;gradientColor=none;whiteSpace=wrap;;html=1;" parent="117" vertex="1">
          <mxGeometry width="62.63" height="13.54" relative="1" as="geometry">
            <mxPoint x="4.684999999999999" y="18.23" as="offset" />
          </mxGeometry>
        </mxCell>
        <UserObject label="" tags="Background" id="25">
          <mxCell style="vsdxID=22;fillColor=none;gradientColor=none;strokeColor=none;spacingTop=-3;spacingBottom=-3;spacingLeft=-3;spacingRight=-3;points=[[0,0.5,0],[1,0.5,0],[0.5,1,0],[0.5,0,0]];labelBackgroundColor=none;rounded=1;html=1;whiteSpace=wrap;" parent="1" vertex="1">
            <mxGeometry x="304" y="1460" width="101" height="76" as="geometry" />
          </mxCell>
        </UserObject>
        <mxCell id="26" style="vsdxID=23;fillColor=#FFFFFF;gradientColor=none;shape=stencil(hVLRDoIwDPyavZLSiouPBvUH/AICUxYVyAAFv95JiW5TI0/t7cpdmxOUtmXWKIHQdqY+qZsuulLQRiDqqlRGd7YStBWUHmqjjqbuq4L7JrNMhAlRBc/ETzZCZvK9vivGIKJYJvzAk5f6+lQc5hkAfhy5T7jdMTfvDZPjkD0DUkbJiqEBX9CSZhYGYwN5KjCST5hkYf1FGTEi6Wu//zrLgK/qeiOfQZ/LflUNtrUmFrByPukbcE36nn4t/s+Ae0zf0xDedsQ/Jikc+HUFW0/x4uDp85nT+UqFLcI4WoijTNsH);strokeColor=#3a414a;spacingTop=-3;spacingBottom=-3;spacingLeft=-3;spacingRight=-3;points=[[0,0.5,0],[1,0.5,0],[0.5,1,0],[0.5,0,0]];labelBackgroundColor=none;rounded=1;html=1;whiteSpace=wrap;" parent="25" vertex="1">
          <mxGeometry width="101" height="76" as="geometry" />
        </mxCell>
        <mxCell id="27" value="&lt;div style=&quot;font-size: 1px&quot;&gt;&lt;p style=&quot;text-align:center;margin-left:0;margin-right:0;margin-top:0px;margin-bottom:0px;text-indent:0;vertical-align:middle;direction:ltr;&quot;&gt;&lt;font style=&quot;font-size:11.29px;font-family:Arial;color:#000000;direction:ltr;letter-spacing:0px;line-height:100%;opacity:1&quot;&gt;Manage Resource Folder&lt;/font&gt;&lt;/p&gt;&lt;/div&gt;" style="text;vsdxID=22;fillColor=none;gradientColor=none;strokeColor=none;spacingTop=-3;spacingBottom=-3;spacingLeft=-3;spacingRight=-3;points=[[0,0.5,0],[1,0.5,0],[0.5,1,0],[0.5,0,0]];labelBackgroundColor=none;rounded=1;html=1;whiteSpace=wrap;verticalAlign=middle;align=center;overflow=width;;html=1;" parent="25" vertex="1">
          <mxGeometry y="-0.2" width="101.6" height="76.2" as="geometry" />
        </mxCell>
        <UserObject label="" tags="Background" id="28">
          <mxCell style="vsdxID=24;fillColor=none;gradientColor=none;strokeColor=none;spacingTop=-3;spacingBottom=-3;spacingLeft=-3;spacingRight=-3;points=[[0,0.5,0],[1,0.5,0],[0.5,1,0],[0.5,0,0]];labelBackgroundColor=none;rounded=1;html=1;whiteSpace=wrap;" parent="1" vertex="1">
            <mxGeometry x="425" y="1701" width="101" height="76" as="geometry" />
          </mxCell>
        </UserObject>
        <mxCell id="29" style="vsdxID=25;fillColor=#FFFFFF;gradientColor=none;shape=stencil(hVLRDoIwDPyavZLSiouPBvUH/AICUxYVyAAFv95JiW5TI0/t7cpdmxOUtmXWKIHQdqY+qZsuulLQRiDqqlRGd7YStBWUHmqjjqbuq4L7JrNMhAlRBc/ETzZCZvK9vivGIKJYJvzAk5f6+lQc5hkAfhy5T7jdMTfvDZPjkD0DUkbJiqEBX9CSZhYGYwN5KjCST5hkYf1FGTEi6Wu//zrLgK/qeiOfQZ/LflUNtrUmFrByPukbcE36nn4t/s+Ae0zf0xDedsQ/Jikc+HUFW0/x4uDp85nT+UqFLcI4WoijTNsH);strokeColor=#3a414a;spacingTop=-3;spacingBottom=-3;spacingLeft=-3;spacingRight=-3;points=[[0,0.5,0],[1,0.5,0],[0.5,1,0],[0.5,0,0]];labelBackgroundColor=none;rounded=1;html=1;whiteSpace=wrap;" parent="28" vertex="1">
          <mxGeometry width="101" height="76" as="geometry" />
        </mxCell>
        <mxCell id="30" value="&lt;div style=&quot;font-size: 1px&quot;&gt;&lt;p style=&quot;text-align:center;margin-left:0;margin-right:0;margin-top:0px;margin-bottom:0px;text-indent:0;vertical-align:middle;direction:ltr;&quot;&gt;&lt;font style=&quot;font-size:11.29px;font-family:Arial;color:#000000;direction:ltr;letter-spacing:0px;line-height:100%;opacity:1&quot;&gt;Click Project Blockers Entry&lt;/font&gt;&lt;/p&gt;&lt;/div&gt;" style="text;vsdxID=24;fillColor=none;gradientColor=none;strokeColor=none;spacingTop=-3;spacingBottom=-3;spacingLeft=-3;spacingRight=-3;points=[[0,0.5,0],[1,0.5,0],[0.5,1,0],[0.5,0,0]];labelBackgroundColor=none;rounded=1;html=1;whiteSpace=wrap;verticalAlign=middle;align=center;overflow=width;;html=1;" parent="28" vertex="1">
          <mxGeometry y="-0.2" width="101.6" height="76.2" as="geometry" />
        </mxCell>
        <UserObject label="" tags="Background" id="31">
          <mxCell style="vsdxID=26;fillColor=none;gradientColor=none;strokeColor=none;spacingTop=-3;spacingBottom=-3;spacingLeft=-3;spacingRight=-3;points=[[0,0.5,0],[1,0.5,0],[0.5,1,0],[0.5,0,0]];labelBackgroundColor=none;rounded=1;html=1;whiteSpace=wrap;" parent="1" vertex="1">
            <mxGeometry x="431" y="1816" width="101" height="76" as="geometry" />
          </mxCell>
        </UserObject>
        <mxCell id="32" style="vsdxID=27;fillColor=#FFFFFF;gradientColor=none;shape=stencil(hVLRDoIwDPyavZLSiouPBvUH/AICUxYVyAAFv95JiW5TI0/t7cpdmxOUtmXWKIHQdqY+qZsuulLQRiDqqlRGd7YStBWUHmqjjqbuq4L7JrNMhAlRBc/ETzZCZvK9vivGIKJYJvzAk5f6+lQc5hkAfhy5T7jdMTfvDZPjkD0DUkbJiqEBX9CSZhYGYwN5KjCST5hkYf1FGTEi6Wu//zrLgK/qeiOfQZ/LflUNtrUmFrByPukbcE36nn4t/s+Ae0zf0xDedsQ/Jikc+HUFW0/x4uDp85nT+UqFLcI4WoijTNsH);strokeColor=#3a414a;spacingTop=-3;spacingBottom=-3;spacingLeft=-3;spacingRight=-3;points=[[0,0.5,0],[1,0.5,0],[0.5,1,0],[0.5,0,0]];labelBackgroundColor=none;rounded=1;html=1;whiteSpace=wrap;" parent="31" vertex="1">
          <mxGeometry width="101" height="76" as="geometry" />
        </mxCell>
        <mxCell id="33" value="&lt;div style=&quot;font-size: 1px&quot;&gt;&lt;p style=&quot;text-align:center;margin-left:0;margin-right:0;margin-top:0px;margin-bottom:0px;text-indent:0;vertical-align:middle;direction:ltr;&quot;&gt;&lt;font style=&quot;font-size:11.29px;font-family:Arial;color:#000000;direction:ltr;letter-spacing:0px;line-height:100%;opacity:1&quot;&gt;Resolved Blocker&lt;/font&gt;&lt;/p&gt;&lt;/div&gt;" style="text;vsdxID=26;fillColor=none;gradientColor=none;strokeColor=none;spacingTop=-3;spacingBottom=-3;spacingLeft=-3;spacingRight=-3;points=[[0,0.5,0],[1,0.5,0],[0.5,1,0],[0.5,0,0]];labelBackgroundColor=none;rounded=1;html=1;whiteSpace=wrap;verticalAlign=middle;align=center;overflow=width;;html=1;" parent="31" vertex="1">
          <mxGeometry y="-0.2" width="101.6" height="76.2" as="geometry" />
        </mxCell>
        <UserObject label="" tags="Background" id="34">
          <mxCell style="vsdxID=28;fillColor=none;gradientColor=none;strokeColor=none;spacingTop=-3;spacingBottom=-3;spacingLeft=-3;spacingRight=-3;points=[[0,0.5,0],[1,0.5,0],[0.5,1,0],[0.5,0,0]];labelBackgroundColor=none;rounded=1;html=1;whiteSpace=wrap;" parent="1" vertex="1">
            <mxGeometry x="520" y="1917" width="101" height="76" as="geometry" />
          </mxCell>
        </UserObject>
        <mxCell id="35" style="vsdxID=29;fillColor=#FFFFFF;gradientColor=none;shape=stencil(hVLRDoIwDPyavZLSiouPBvUH/AICUxYVyAAFv95JiW5TI0/t7cpdmxOUtmXWKIHQdqY+qZsuulLQRiDqqlRGd7YStBWUHmqjjqbuq4L7JrNMhAlRBc/ETzZCZvK9vivGIKJYJvzAk5f6+lQc5hkAfhy5T7jdMTfvDZPjkD0DUkbJiqEBX9CSZhYGYwN5KjCST5hkYf1FGTEi6Wu//zrLgK/qeiOfQZ/LflUNtrUmFrByPukbcE36nn4t/s+Ae0zf0xDedsQ/Jikc+HUFW0/x4uDp85nT+UqFLcI4WoijTNsH);strokeColor=#3a414a;spacingTop=-3;spacingBottom=-3;spacingLeft=-3;spacingRight=-3;points=[[0,0.5,0],[1,0.5,0],[0.5,1,0],[0.5,0,0]];labelBackgroundColor=none;rounded=1;html=1;whiteSpace=wrap;" parent="34" vertex="1">
          <mxGeometry width="101" height="76" as="geometry" />
        </mxCell>
        <mxCell id="36" value="&lt;div style=&quot;font-size: 1px&quot;&gt;&lt;p style=&quot;text-align:center;margin-left:0;margin-right:0;margin-top:0px;margin-bottom:0px;text-indent:0;vertical-align:middle;direction:ltr;&quot;&gt;&lt;font style=&quot;font-size:11.29px;font-family:Arial;color:#000000;direction:ltr;letter-spacing:0px;line-height:100%;opacity:1&quot;&gt;Manage Projects Assigned&lt;/font&gt;&lt;/p&gt;&lt;/div&gt;" style="text;vsdxID=28;fillColor=none;gradientColor=none;strokeColor=none;spacingTop=-3;spacingBottom=-3;spacingLeft=-3;spacingRight=-3;points=[[0,0.5,0],[1,0.5,0],[0.5,1,0],[0.5,0,0]];labelBackgroundColor=none;rounded=1;html=1;whiteSpace=wrap;verticalAlign=middle;align=center;overflow=width;;html=1;" parent="34" vertex="1">
          <mxGeometry y="-0.2" width="101.6" height="76.2" as="geometry" />
        </mxCell>
        <UserObject label="" tags="Background" id="37">
          <mxCell style="vsdxID=30;fillColor=none;gradientColor=none;strokeColor=none;spacingTop=-3;spacingBottom=-3;spacingLeft=-3;spacingRight=-3;points=[[0,0.5,0],[1,0.5,0],[0.5,1,0],[0.5,0,0]];labelBackgroundColor=none;rounded=1;html=1;whiteSpace=wrap;" parent="1" vertex="1">
            <mxGeometry x="527" y="2006" width="101" height="76" as="geometry" />
          </mxCell>
        </UserObject>
        <mxCell id="38" style="vsdxID=31;fillColor=#FFFFFF;gradientColor=none;shape=stencil(hVLRDoIwDPyavZLSiouPBvUH/AICUxYVyAAFv95JiW5TI0/t7cpdmxOUtmXWKIHQdqY+qZsuulLQRiDqqlRGd7YStBWUHmqjjqbuq4L7JrNMhAlRBc/ETzZCZvK9vivGIKJYJvzAk5f6+lQc5hkAfhy5T7jdMTfvDZPjkD0DUkbJiqEBX9CSZhYGYwN5KjCST5hkYf1FGTEi6Wu//zrLgK/qeiOfQZ/LflUNtrUmFrByPukbcE36nn4t/s+Ae0zf0xDedsQ/Jikc+HUFW0/x4uDp85nT+UqFLcI4WoijTNsH);strokeColor=#3a414a;spacingTop=-3;spacingBottom=-3;spacingLeft=-3;spacingRight=-3;points=[[0,0.5,0],[1,0.5,0],[0.5,1,0],[0.5,0,0]];labelBackgroundColor=none;rounded=1;html=1;whiteSpace=wrap;" parent="37" vertex="1">
          <mxGeometry width="101" height="76" as="geometry" />
        </mxCell>
        <mxCell id="39" value="&lt;div style=&quot;font-size: 1px&quot;&gt;&lt;p style=&quot;text-align:center;margin-left:0;margin-right:0;margin-top:0px;margin-bottom:0px;text-indent:0;vertical-align:middle;direction:ltr;&quot;&gt;&lt;font style=&quot;font-size:11.29px;font-family:Arial;color:#000000;direction:ltr;letter-spacing:0px;line-height:100%;opacity:1&quot;&gt;Manage Projects in progress&lt;/font&gt;&lt;/p&gt;&lt;/div&gt;" style="text;vsdxID=30;fillColor=none;gradientColor=none;strokeColor=none;spacingTop=-3;spacingBottom=-3;spacingLeft=-3;spacingRight=-3;points=[[0,0.5,0],[1,0.5,0],[0.5,1,0],[0.5,0,0]];labelBackgroundColor=none;rounded=1;html=1;whiteSpace=wrap;verticalAlign=middle;align=center;overflow=width;;html=1;" parent="37" vertex="1">
          <mxGeometry y="-0.2" width="101.6" height="76.2" as="geometry" />
        </mxCell>
        <UserObject label="" tags="Background" id="40">
          <mxCell style="vsdxID=32;fillColor=none;gradientColor=none;strokeColor=none;spacingTop=-3;spacingBottom=-3;spacingLeft=-3;spacingRight=-3;points=[[0,0.5,0],[1,0.5,0],[0.5,1,0],[0.5,0,0]];labelBackgroundColor=none;rounded=1;html=1;whiteSpace=wrap;" parent="1" vertex="1">
            <mxGeometry x="527" y="2098" width="101" height="76" as="geometry" />
          </mxCell>
        </UserObject>
        <mxCell id="41" style="vsdxID=33;fillColor=#FFFFFF;gradientColor=none;shape=stencil(hVLRDoIwDPyavZLSiouPBvUH/AICUxYVyAAFv95JiW5TI0/t7cpdmxOUtmXWKIHQdqY+qZsuulLQRiDqqlRGd7YStBWUHmqjjqbuq4L7JrNMhAlRBc/ETzZCZvK9vivGIKJYJvzAk5f6+lQc5hkAfhy5T7jdMTfvDZPjkD0DUkbJiqEBX9CSZhYGYwN5KjCST5hkYf1FGTEi6Wu//zrLgK/qeiOfQZ/LflUNtrUmFrByPukbcE36nn4t/s+Ae0zf0xDedsQ/Jikc+HUFW0/x4uDp85nT+UqFLcI4WoijTNsH);strokeColor=#3a414a;spacingTop=-3;spacingBottom=-3;spacingLeft=-3;spacingRight=-3;points=[[0,0.5,0],[1,0.5,0],[0.5,1,0],[0.5,0,0]];labelBackgroundColor=none;rounded=1;html=1;whiteSpace=wrap;" parent="40" vertex="1">
          <mxGeometry width="101" height="76" as="geometry" />
        </mxCell>
        <mxCell id="42" value="&lt;div style=&quot;font-size: 1px&quot;&gt;&lt;p style=&quot;text-align:center;margin-left:0;margin-right:0;margin-top:0px;margin-bottom:0px;text-indent:0;vertical-align:middle;direction:ltr;&quot;&gt;&lt;font style=&quot;font-size:11.29px;font-family:Arial;color:#000000;direction:ltr;letter-spacing:0px;line-height:100%;opacity:1&quot;&gt;Manage Project Closure&lt;/font&gt;&lt;/p&gt;&lt;/div&gt;" style="text;vsdxID=32;fillColor=none;gradientColor=none;strokeColor=none;spacingTop=-3;spacingBottom=-3;spacingLeft=-3;spacingRight=-3;points=[[0,0.5,0],[1,0.5,0],[0.5,1,0],[0.5,0,0]];labelBackgroundColor=none;rounded=1;html=1;whiteSpace=wrap;verticalAlign=middle;align=center;overflow=width;;html=1;" parent="40" vertex="1">
          <mxGeometry y="-0.2" width="101.6" height="76.2" as="geometry" />
        </mxCell>
        <UserObject label="" tags="Background" id="119">
          <mxCell style="vsdxID=34;edgeStyle=none;startArrow=none;endArrow=none;startSize=5;endSize=5;strokeColor=#3a414a;spacingTop=-3;spacingBottom=-3;spacingLeft=-3;spacingRight=-3;verticalAlign=middle;html=1;labelBackgroundColor=none;rounded=1;" parent="1" edge="1">
            <mxGeometry relative="1" as="geometry">
              <mxPoint x="-1" as="offset" />
              <Array as="points" />
              <mxPoint x="128" y="1313" as="sourcePoint" />
              <mxPoint x="304" y="1498" as="targetPoint" />
            </mxGeometry>
          </mxCell>
        </UserObject>
        <UserObject label="" tags="Background" id="120">
          <mxCell style="vsdxID=35;edgeStyle=none;startArrow=none;endArrow=none;startSize=5;endSize=5;strokeColor=#3a414a;spacingTop=-3;spacingBottom=-3;spacingLeft=-3;spacingRight=-3;verticalAlign=middle;html=1;labelBackgroundColor=none;rounded=1;" parent="1" edge="1">
            <mxGeometry relative="1" as="geometry">
              <mxPoint x="-1" as="offset" />
              <Array as="points" />
              <mxPoint x="128" y="1324" as="sourcePoint" />
              <mxPoint x="304" y="1803" as="targetPoint" />
            </mxGeometry>
          </mxCell>
        </UserObject>
        <UserObject label="" tags="Background" id="121">
          <mxCell style="vsdxID=36;edgeStyle=none;startArrow=none;endArrow=none;startSize=5;endSize=5;strokeColor=#3a414a;spacingTop=-3;spacingBottom=-3;spacingLeft=-3;spacingRight=-3;verticalAlign=middle;html=1;labelBackgroundColor=none;rounded=1;" parent="1" edge="1">
            <mxGeometry relative="1" as="geometry">
              <mxPoint x="-1" as="offset" />
              <Array as="points" />
              <mxPoint x="128" y="1319" as="sourcePoint" />
              <mxPoint x="304" y="2012" as="targetPoint" />
            </mxGeometry>
          </mxCell>
        </UserObject>
        <UserObject label="" tags="Background" id="43">
          <mxCell style="vsdxID=37;fillColor=none;gradientColor=none;strokeColor=none;spacingTop=-3;spacingBottom=-3;spacingLeft=-3;spacingRight=-3;points=[[0,0.5,0],[1,0.5,0],[0.5,1,0],[0.5,0,0]];labelBackgroundColor=none;rounded=1;html=1;whiteSpace=wrap;" parent="1" vertex="1">
            <mxGeometry x="317" y="965" width="101" height="76" as="geometry" />
          </mxCell>
        </UserObject>
        <mxCell id="44" style="vsdxID=38;fillColor=#FFFFFF;gradientColor=none;shape=stencil(hVLRDoIwDPyavZLSiouPBvUH/AICUxYVyAAFv95JiW5TI0/t7cpdmxOUtmXWKIHQdqY+qZsuulLQRiDqqlRGd7YStBWUHmqjjqbuq4L7JrNMhAlRBc/ETzZCZvK9vivGIKJYJvzAk5f6+lQc5hkAfhy5T7jdMTfvDZPjkD0DUkbJiqEBX9CSZhYGYwN5KjCST5hkYf1FGTEi6Wu//zrLgK/qeiOfQZ/LflUNtrUmFrByPukbcE36nn4t/s+Ae0zf0xDedsQ/Jikc+HUFW0/x4uDp85nT+UqFLcI4WoijTNsH);strokeColor=#3a414a;spacingTop=-3;spacingBottom=-3;spacingLeft=-3;spacingRight=-3;points=[[0,0.5,0],[1,0.5,0],[0.5,1,0],[0.5,0,0]];labelBackgroundColor=none;rounded=1;html=1;whiteSpace=wrap;" parent="43" vertex="1">
          <mxGeometry width="101" height="76" as="geometry" />
        </mxCell>
        <mxCell id="45" value="&lt;div style=&quot;font-size: 1px&quot;&gt;&lt;p style=&quot;text-align:center;margin-left:0;margin-right:0;margin-top:0px;margin-bottom:0px;text-indent:0;vertical-align:middle;direction:ltr;&quot;&gt;&lt;font style=&quot;font-size:11.29px;font-family:Arial;color:#000000;direction:ltr;letter-spacing:0px;line-height:100%;opacity:1&quot;&gt;Reset Password&lt;/font&gt;&lt;/p&gt;&lt;/div&gt;" style="text;vsdxID=37;fillColor=none;gradientColor=none;strokeColor=none;spacingTop=-3;spacingBottom=-3;spacingLeft=-3;spacingRight=-3;points=[[0,0.5,0],[1,0.5,0],[0.5,1,0],[0.5,0,0]];labelBackgroundColor=none;rounded=1;html=1;whiteSpace=wrap;verticalAlign=middle;align=center;overflow=width;;html=1;" parent="43" vertex="1">
          <mxGeometry y="-0.2" width="101.6" height="76.2" as="geometry" />
        </mxCell>
        <UserObject label="" tags="Background" id="122">
          <mxCell style="vsdxID=39;edgeStyle=none;dashed=1;startArrow=none;endArrow=block;startSize=5;endSize=5;strokeColor=#3a414a;spacingTop=-3;spacingBottom=-3;spacingLeft=-3;spacingRight=-3;verticalAlign=middle;html=1;labelBackgroundColor=#ffffff;rounded=1;" parent="1" edge="1">
            <mxGeometry relative="1" as="geometry">
              <Array as="points" />
              <mxPoint x="419" y="1003" as="sourcePoint" />
              <mxPoint x="787" y="1104" as="targetPoint" />
            </mxGeometry>
          </mxCell>
        </UserObject>
        <mxCell id="123" value="&lt;div style=&quot;font-size: 1px&quot;&gt;&lt;p style=&quot;text-align:left;margin-left:0;margin-right:0;margin-top:0px;margin-bottom:0px;text-indent:0;vertical-align:middle;direction:ltr;&quot;&gt;&lt;font style=&quot;font-size:11.29px;font-family:Arial;color:#333333;direction:ltr;letter-spacing:0px;line-height:100%;opacity:1&quot;&gt;&lt;b&gt;&amp;lt;&amp;lt;include&amp;gt;&amp;gt;&lt;/b&gt;&lt;/font&gt;&lt;/p&gt;&lt;/div&gt;" style="text;vsdxID=39;edgeStyle=none;dashed=1;startArrow=none;endArrow=block;startSize=5;endSize=5;strokeColor=none;spacingTop=-3;spacingBottom=-3;spacingLeft=-3;spacingRight=-3;verticalAlign=middle;html=1;labelBackgroundColor=#ffffff;rounded=1;align=left;overflow=width;fillColor=none;gradientColor=none;whiteSpace=wrap;;html=1;" parent="122" vertex="1">
          <mxGeometry width="65.77" height="13.54" relative="1" as="geometry">
            <mxPoint x="-58.885" y="12.23" as="offset" />
          </mxGeometry>
        </mxCell>
        <UserObject label="" tags="Background" id="46">
          <mxCell style="vsdxID=40;fillColor=none;gradientColor=none;strokeColor=none;spacingTop=-3;spacingBottom=-3;spacingLeft=-3;spacingRight=-3;points=[[0,0.5,0],[1,0.5,0],[0.5,1,0],[0.5,0,0],[1.23,1,0]];labelBackgroundColor=none;rounded=1;html=1;whiteSpace=wrap;" parent="1" vertex="1">
            <mxGeometry x="787" y="1066" width="101" height="76" as="geometry" />
          </mxCell>
        </UserObject>
        <mxCell id="47" style="vsdxID=41;fillColor=#FFFFFF;gradientColor=none;shape=stencil(hVLRDoIwDPyavZLSiouPBvUH/AICUxYVyAAFv95JiW5TI0/t7cpdmxOUtmXWKIHQdqY+qZsuulLQRiDqqlRGd7YStBWUHmqjjqbuq4L7JrNMhAlRBc/ETzZCZvK9vivGIKJYJvzAk5f6+lQc5hkAfhy5T7jdMTfvDZPjkD0DUkbJiqEBX9CSZhYGYwN5KjCST5hkYf1FGTEi6Wu//zrLgK/qeiOfQZ/LflUNtrUmFrByPukbcE36nn4t/s+Ae0zf0xDedsQ/Jikc+HUFW0/x4uDp85nT+UqFLcI4WoijTNsH);strokeColor=#3a414a;spacingTop=-3;spacingBottom=-3;spacingLeft=-3;spacingRight=-3;points=[[0,0.5,0],[1,0.5,0],[0.5,1,0],[0.5,0,0]];labelBackgroundColor=none;rounded=1;html=1;whiteSpace=wrap;" parent="46" vertex="1">
          <mxGeometry width="101" height="76" as="geometry" />
        </mxCell>
        <mxCell id="48" value="&lt;div style=&quot;font-size: 1px&quot;&gt;&lt;p style=&quot;text-align:center;margin-left:0;margin-right:0;margin-top:0px;margin-bottom:0px;text-indent:0;vertical-align:middle;direction:ltr;&quot;&gt;&lt;font style=&quot;font-size:11.29px;font-family:Arial;color:#000000;direction:ltr;letter-spacing:0px;line-height:100%;opacity:1&quot;&gt;Send reset password email&lt;/font&gt;&lt;/p&gt;&lt;/div&gt;" style="text;vsdxID=40;fillColor=none;gradientColor=none;strokeColor=none;spacingTop=-3;spacingBottom=-3;spacingLeft=-3;spacingRight=-3;points=[[0,0.5,0],[1,0.5,0],[0.5,1,0],[0.5,0,0],[1.23,1,0]];labelBackgroundColor=none;rounded=1;html=1;whiteSpace=wrap;verticalAlign=middle;align=center;overflow=width;;html=1;" parent="46" vertex="1">
          <mxGeometry y="-0.2" width="101.6" height="76.2" as="geometry" />
        </mxCell>
        <UserObject label="" tags="Background" id="49">
          <mxCell style="vsdxID=42;fillColor=none;gradientColor=none;strokeColor=none;spacingTop=-3;spacingBottom=-3;spacingLeft=-3;spacingRight=-3;points=[[0,0.5,0],[1,0.5,0],[0.5,1,0],[0.5,0,0]];labelBackgroundColor=none;rounded=1;html=1;whiteSpace=wrap;" parent="1" vertex="1">
            <mxGeometry x="863" y="1308" width="101" height="76" as="geometry" />
          </mxCell>
        </UserObject>
        <mxCell id="50" style="vsdxID=43;fillColor=#FFFFFF;gradientColor=none;shape=stencil(hVLRDoIwDPyavZLSiouPBvUH/AICUxYVyAAFv95JiW5TI0/t7cpdmxOUtmXWKIHQdqY+qZsuulLQRiDqqlRGd7YStBWUHmqjjqbuq4L7JrNMhAlRBc/ETzZCZvK9vivGIKJYJvzAk5f6+lQc5hkAfhy5T7jdMTfvDZPjkD0DUkbJiqEBX9CSZhYGYwN5KjCST5hkYf1FGTEi6Wu//zrLgK/qeiOfQZ/LflUNtrUmFrByPukbcE36nn4t/s+Ae0zf0xDedsQ/Jikc+HUFW0/x4uDp85nT+UqFLcI4WoijTNsH);strokeColor=#3a414a;spacingTop=-3;spacingBottom=-3;spacingLeft=-3;spacingRight=-3;points=[[0,0.5,0],[1,0.5,0],[0.5,1,0],[0.5,0,0]];labelBackgroundColor=none;rounded=1;html=1;whiteSpace=wrap;" parent="49" vertex="1">
          <mxGeometry width="101" height="76" as="geometry" />
        </mxCell>
        <mxCell id="51" value="&lt;div style=&quot;font-size: 1px&quot;&gt;&lt;p style=&quot;text-align:center;margin-left:0;margin-right:0;margin-top:0px;margin-bottom:0px;text-indent:0;vertical-align:middle;direction:ltr;&quot;&gt;&lt;font style=&quot;font-size:11.29px;font-family:Arial;color:#000000;direction:ltr;letter-spacing:0px;line-height:100%;opacity:1&quot;&gt;Download file&lt;/font&gt;&lt;/p&gt;&lt;/div&gt;" style="text;vsdxID=42;fillColor=none;gradientColor=none;strokeColor=none;spacingTop=-3;spacingBottom=-3;spacingLeft=-3;spacingRight=-3;points=[[0,0.5,0],[1,0.5,0],[0.5,1,0],[0.5,0,0]];labelBackgroundColor=none;rounded=1;html=1;whiteSpace=wrap;verticalAlign=middle;align=center;overflow=width;;html=1;" parent="49" vertex="1">
          <mxGeometry y="-0.2" width="101.6" height="76.2" as="geometry" />
        </mxCell>
        <UserObject label="" tags="Background" id="52">
          <mxCell style="vsdxID=44;fillColor=none;gradientColor=none;strokeColor=none;spacingTop=-3;spacingBottom=-3;spacingLeft=-3;spacingRight=-3;points=[[0,0.5,0],[1,0.5,0],[0.5,1,0],[0.5,0,0]];labelBackgroundColor=none;rounded=1;html=1;whiteSpace=wrap;" parent="1" vertex="1">
            <mxGeometry x="863" y="1397" width="101" height="76" as="geometry" />
          </mxCell>
        </UserObject>
        <mxCell id="53" style="vsdxID=45;fillColor=#FFFFFF;gradientColor=none;shape=stencil(hVLRDoIwDPyavZLSiouPBvUH/AICUxYVyAAFv95JiW5TI0/t7cpdmxOUtmXWKIHQdqY+qZsuulLQRiDqqlRGd7YStBWUHmqjjqbuq4L7JrNMhAlRBc/ETzZCZvK9vivGIKJYJvzAk5f6+lQc5hkAfhy5T7jdMTfvDZPjkD0DUkbJiqEBX9CSZhYGYwN5KjCST5hkYf1FGTEi6Wu//zrLgK/qeiOfQZ/LflUNtrUmFrByPukbcE36nn4t/s+Ae0zf0xDedsQ/Jikc+HUFW0/x4uDp85nT+UqFLcI4WoijTNsH);strokeColor=#3a414a;spacingTop=-3;spacingBottom=-3;spacingLeft=-3;spacingRight=-3;points=[[0,0.5,0],[1,0.5,0],[0.5,1,0],[0.5,0,0]];labelBackgroundColor=none;rounded=1;html=1;whiteSpace=wrap;" parent="52" vertex="1">
          <mxGeometry width="101" height="76" as="geometry" />
        </mxCell>
        <mxCell id="54" value="&lt;div style=&quot;font-size: 1px&quot;&gt;&lt;p style=&quot;text-align:center;margin-left:0;margin-right:0;margin-top:0px;margin-bottom:0px;text-indent:0;vertical-align:middle;direction:ltr;&quot;&gt;&lt;font style=&quot;font-size:11.29px;font-family:Arial;color:#000000;direction:ltr;letter-spacing:0px;line-height:100%;opacity:1&quot;&gt;upload file&lt;/font&gt;&lt;/p&gt;&lt;/div&gt;" style="text;vsdxID=44;fillColor=none;gradientColor=none;strokeColor=none;spacingTop=-3;spacingBottom=-3;spacingLeft=-3;spacingRight=-3;points=[[0,0.5,0],[1,0.5,0],[0.5,1,0],[0.5,0,0]];labelBackgroundColor=none;rounded=1;html=1;whiteSpace=wrap;verticalAlign=middle;align=center;overflow=width;;html=1;" parent="52" vertex="1">
          <mxGeometry y="-0.2" width="101.6" height="76.2" as="geometry" />
        </mxCell>
        <UserObject label="" tags="Background" id="124">
          <mxCell style="vsdxID=46;edgeStyle=none;dashed=1;startArrow=none;endArrow=block;startSize=5;endSize=5;strokeColor=#3a414a;spacingTop=-3;spacingBottom=-3;spacingLeft=-3;spacingRight=-3;verticalAlign=middle;html=1;labelBackgroundColor=#ffffff;rounded=1;" parent="1" edge="1">
            <mxGeometry relative="1" as="geometry">
              <Array as="points" />
              <mxPoint x="863" y="1435" as="sourcePoint" />
              <mxPoint x="622" y="1397" as="targetPoint" />
            </mxGeometry>
          </mxCell>
        </UserObject>
        <mxCell id="125" value="&lt;div style=&quot;font-size: 1px&quot;&gt;&lt;p style=&quot;text-align:left;margin-left:0;margin-right:0;margin-top:0px;margin-bottom:0px;text-indent:0;vertical-align:middle;direction:ltr;&quot;&gt;&lt;font style=&quot;font-size:11.29px;font-family:Arial;color:#333333;direction:ltr;letter-spacing:0px;line-height:100%;opacity:1&quot;&gt;&lt;b&gt;&amp;lt;&amp;lt;extend&amp;gt;&amp;gt;&lt;/b&gt;&lt;/font&gt;&lt;/p&gt;&lt;/div&gt;" style="text;vsdxID=46;edgeStyle=none;dashed=1;startArrow=none;endArrow=block;startSize=5;endSize=5;strokeColor=none;spacingTop=-3;spacingBottom=-3;spacingLeft=-3;spacingRight=-3;verticalAlign=middle;html=1;labelBackgroundColor=#ffffff;rounded=1;align=left;overflow=width;fillColor=none;gradientColor=none;whiteSpace=wrap;;html=1;" parent="124" vertex="1">
          <mxGeometry width="62.63" height="13.54" relative="1" as="geometry">
            <mxPoint x="-31.315" y="17.23" as="offset" />
          </mxGeometry>
        </mxCell>
        <UserObject label="" tags="Background" id="126">
          <mxCell style="vsdxID=47;edgeStyle=none;dashed=1;startArrow=none;endArrow=block;startSize=5;endSize=5;strokeColor=#3a414a;spacingTop=-3;spacingBottom=-3;spacingLeft=-3;spacingRight=-3;verticalAlign=middle;html=1;labelBackgroundColor=#ffffff;rounded=1;" parent="1" edge="1">
            <mxGeometry relative="1" as="geometry">
              <Array as="points" />
              <mxPoint x="863" y="1346" as="sourcePoint" />
              <mxPoint x="622" y="1397" as="targetPoint" />
            </mxGeometry>
          </mxCell>
        </UserObject>
        <mxCell id="127" value="&lt;div style=&quot;font-size: 1px&quot;&gt;&lt;p style=&quot;text-align:left;margin-left:0;margin-right:0;margin-top:0px;margin-bottom:0px;text-indent:0;vertical-align:middle;direction:ltr;&quot;&gt;&lt;font style=&quot;font-size:11.29px;font-family:Arial;color:#333333;direction:ltr;letter-spacing:0px;line-height:100%;opacity:1&quot;&gt;&lt;b&gt;&amp;lt;&amp;lt;extend&amp;gt;&amp;gt;&lt;/b&gt;&lt;/font&gt;&lt;/p&gt;&lt;/div&gt;" style="text;vsdxID=47;edgeStyle=none;dashed=1;startArrow=none;endArrow=block;startSize=5;endSize=5;strokeColor=none;spacingTop=-3;spacingBottom=-3;spacingLeft=-3;spacingRight=-3;verticalAlign=middle;html=1;labelBackgroundColor=#ffffff;rounded=1;align=left;overflow=width;fillColor=none;gradientColor=none;whiteSpace=wrap;;html=1;" parent="126" vertex="1">
          <mxGeometry width="62.63" height="13.54" relative="1" as="geometry">
            <mxPoint x="-31.315" y="17.23" as="offset" />
          </mxGeometry>
        </mxCell>
        <UserObject label="" tags="Background" id="55">
          <mxCell style="vsdxID=48;fillColor=none;gradientColor=none;strokeColor=none;spacingTop=-3;spacingBottom=-3;spacingLeft=-3;spacingRight=-3;points=[[0,0.5,0],[1,0.5,0],[0.5,1,0],[0.5,0,0]];labelBackgroundColor=none;rounded=1;html=1;whiteSpace=wrap;" parent="1" vertex="1">
            <mxGeometry x="520" y="1358" width="101" height="76" as="geometry" />
          </mxCell>
        </UserObject>
        <mxCell id="56" style="vsdxID=49;fillColor=#FFFFFF;gradientColor=none;shape=stencil(hVLRDoIwDPyavZLSiouPBvUH/AICUxYVyAAFv95JiW5TI0/t7cpdmxOUtmXWKIHQdqY+qZsuulLQRiDqqlRGd7YStBWUHmqjjqbuq4L7JrNMhAlRBc/ETzZCZvK9vivGIKJYJvzAk5f6+lQc5hkAfhy5T7jdMTfvDZPjkD0DUkbJiqEBX9CSZhYGYwN5KjCST5hkYf1FGTEi6Wu//zrLgK/qeiOfQZ/LflUNtrUmFrByPukbcE36nn4t/s+Ae0zf0xDedsQ/Jikc+HUFW0/x4uDp85nT+UqFLcI4WoijTNsH);strokeColor=#3a414a;spacingTop=-3;spacingBottom=-3;spacingLeft=-3;spacingRight=-3;points=[[0,0.5,0],[1,0.5,0],[0.5,1,0],[0.5,0,0]];labelBackgroundColor=none;rounded=1;html=1;whiteSpace=wrap;" parent="55" vertex="1">
          <mxGeometry width="101" height="76" as="geometry" />
        </mxCell>
        <mxCell id="57" value="&lt;div style=&quot;font-size: 1px&quot;&gt;&lt;p style=&quot;text-align:center;margin-left:0;margin-right:0;margin-top:0px;margin-bottom:0px;text-indent:0;vertical-align:middle;direction:ltr;&quot;&gt;&lt;font style=&quot;font-size:11.29px;font-family:Arial;color:#000000;direction:ltr;letter-spacing:0px;line-height:100%;opacity:1&quot;&gt;Open Test Folder&lt;/font&gt;&lt;/p&gt;&lt;/div&gt;" style="text;vsdxID=48;fillColor=none;gradientColor=none;strokeColor=none;spacingTop=-3;spacingBottom=-3;spacingLeft=-3;spacingRight=-3;points=[[0,0.5,0],[1,0.5,0],[0.5,1,0],[0.5,0,0]];labelBackgroundColor=none;rounded=1;html=1;whiteSpace=wrap;verticalAlign=middle;align=center;overflow=width;;html=1;" parent="55" vertex="1">
          <mxGeometry y="-0.2" width="101.6" height="76.2" as="geometry" />
        </mxCell>
        <UserObject label="" tags="Background" id="128">
          <mxCell style="vsdxID=50;edgeStyle=none;startArrow=none;endArrow=none;startSize=5;endSize=5;strokeColor=#3a414a;spacingTop=-3;spacingBottom=-3;spacingLeft=-3;spacingRight=-3;verticalAlign=middle;html=1;labelBackgroundColor=none;rounded=1;" parent="1" edge="1">
            <mxGeometry relative="1" as="geometry">
              <mxPoint y="-1" as="offset" />
              <Array as="points" />
              <mxPoint x="406" y="1498" as="sourcePoint" />
              <mxPoint x="520" y="1397" as="targetPoint" />
            </mxGeometry>
          </mxCell>
        </UserObject>
        <UserObject label="" tags="Background" id="58">
          <mxCell style="vsdxID=51;fillColor=none;gradientColor=none;strokeColor=none;spacingTop=-3;spacingBottom=-3;spacingLeft=-3;spacingRight=-3;points=[[0,0.5,0],[1,0.5,0],[0.5,1,0],[0.5,0,0],[-2.25,0.92,0]];labelBackgroundColor=none;rounded=1;html=1;whiteSpace=wrap;" parent="1" vertex="1">
            <mxGeometry x="533" y="1524" width="101" height="76" as="geometry" />
          </mxCell>
        </UserObject>
        <mxCell id="59" style="vsdxID=52;fillColor=#FFFFFF;gradientColor=none;shape=stencil(hVLRDoIwDPyavZLSiouPBvUH/AICUxYVyAAFv95JiW5TI0/t7cpdmxOUtmXWKIHQdqY+qZsuulLQRiDqqlRGd7YStBWUHmqjjqbuq4L7JrNMhAlRBc/ETzZCZvK9vivGIKJYJvzAk5f6+lQc5hkAfhy5T7jdMTfvDZPjkD0DUkbJiqEBX9CSZhYGYwN5KjCST5hkYf1FGTEi6Wu//zrLgK/qeiOfQZ/LflUNtrUmFrByPukbcE36nn4t/s+Ae0zf0xDedsQ/Jikc+HUFW0/x4uDp85nT+UqFLcI4WoijTNsH);strokeColor=#3a414a;spacingTop=-3;spacingBottom=-3;spacingLeft=-3;spacingRight=-3;points=[[0,0.5,0],[1,0.5,0],[0.5,1,0],[0.5,0,0]];labelBackgroundColor=none;rounded=1;html=1;whiteSpace=wrap;" parent="58" vertex="1">
          <mxGeometry width="101" height="76" as="geometry" />
        </mxCell>
        <mxCell id="60" value="&lt;div style=&quot;font-size: 1px&quot;&gt;&lt;p style=&quot;text-align:center;margin-left:0;margin-right:0;margin-top:0px;margin-bottom:0px;text-indent:0;vertical-align:middle;direction:ltr;&quot;&gt;&lt;font style=&quot;font-size:11.29px;font-family:Arial;color:#000000;direction:ltr;letter-spacing:0px;line-height:100%;opacity:1&quot;&gt;Open Users story folder&lt;/font&gt;&lt;/p&gt;&lt;/div&gt;" style="text;vsdxID=51;fillColor=none;gradientColor=none;strokeColor=none;spacingTop=-3;spacingBottom=-3;spacingLeft=-3;spacingRight=-3;points=[[0,0.5,0],[1,0.5,0],[0.5,1,0],[0.5,0,0],[-2.25,0.92,0]];labelBackgroundColor=none;rounded=1;html=1;whiteSpace=wrap;verticalAlign=middle;align=center;overflow=width;;html=1;" parent="58" vertex="1">
          <mxGeometry y="-0.2" width="101.6" height="76.2" as="geometry" />
        </mxCell>
        <UserObject label="" tags="Background" id="129">
          <mxCell style="vsdxID=53;edgeStyle=none;dashed=1;startArrow=none;endArrow=block;startSize=5;endSize=5;strokeColor=#3a414a;spacingTop=-3;spacingBottom=-3;spacingLeft=-3;spacingRight=-3;verticalAlign=middle;html=1;labelBackgroundColor=#ffffff;rounded=1;" parent="1" edge="1">
            <mxGeometry relative="1" as="geometry">
              <Array as="points" />
              <mxPoint x="863" y="1651" as="sourcePoint" />
              <mxPoint x="635" y="1562" as="targetPoint" />
            </mxGeometry>
          </mxCell>
        </UserObject>
        <mxCell id="130" value="&lt;div style=&quot;font-size: 1px&quot;&gt;&lt;p style=&quot;text-align:left;margin-left:0;margin-right:0;margin-top:0px;margin-bottom:0px;text-indent:0;vertical-align:middle;direction:ltr;&quot;&gt;&lt;font style=&quot;font-size:11.29px;font-family:Arial;color:#333333;direction:ltr;letter-spacing:0px;line-height:100%;opacity:1&quot;&gt;&lt;b&gt;&amp;lt;&amp;lt;extend&amp;gt;&amp;gt;&lt;/b&gt;&lt;/font&gt;&lt;/p&gt;&lt;/div&gt;" style="text;vsdxID=53;edgeStyle=none;dashed=1;startArrow=none;endArrow=block;startSize=5;endSize=5;strokeColor=none;spacingTop=-3;spacingBottom=-3;spacingLeft=-3;spacingRight=-3;verticalAlign=middle;html=1;labelBackgroundColor=#ffffff;rounded=1;align=left;overflow=width;fillColor=none;gradientColor=none;whiteSpace=wrap;;html=1;" parent="129" vertex="1">
          <mxGeometry width="62.63" height="13.54" relative="1" as="geometry">
            <mxPoint x="-32.315" y="17.23" as="offset" />
          </mxGeometry>
        </mxCell>
        <UserObject label="" tags="Background" id="131">
          <mxCell style="vsdxID=54;edgeStyle=none;dashed=1;startArrow=none;endArrow=block;startSize=5;endSize=5;strokeColor=#3a414a;spacingTop=-3;spacingBottom=-3;spacingLeft=-3;spacingRight=-3;verticalAlign=middle;html=1;labelBackgroundColor=#ffffff;rounded=1;" parent="1" edge="1">
            <mxGeometry relative="1" as="geometry">
              <Array as="points" />
              <mxPoint x="863" y="1549" as="sourcePoint" />
              <mxPoint x="635" y="1560" as="targetPoint" />
            </mxGeometry>
          </mxCell>
        </UserObject>
        <mxCell id="132" value="&lt;div style=&quot;font-size: 1px&quot;&gt;&lt;p style=&quot;text-align:left;margin-left:0;margin-right:0;margin-top:0px;margin-bottom:0px;text-indent:0;vertical-align:middle;direction:ltr;&quot;&gt;&lt;font style=&quot;font-size:11.29px;font-family:Arial;color:#333333;direction:ltr;letter-spacing:0px;line-height:100%;opacity:1&quot;&gt;&lt;b&gt;&amp;lt;&amp;lt;etend&amp;gt;&amp;gt;&lt;/b&gt;&lt;/font&gt;&lt;/p&gt;&lt;/div&gt;" style="text;vsdxID=54;edgeStyle=none;dashed=1;startArrow=none;endArrow=block;startSize=5;endSize=5;strokeColor=none;spacingTop=-3;spacingBottom=-3;spacingLeft=-3;spacingRight=-3;verticalAlign=middle;html=1;labelBackgroundColor=#ffffff;rounded=1;align=left;overflow=width;fillColor=none;gradientColor=none;whiteSpace=wrap;;html=1;" parent="131" vertex="1">
          <mxGeometry width="56.36" height="13.54" relative="1" as="geometry">
            <mxPoint x="-29.18" y="14.23" as="offset" />
          </mxGeometry>
        </mxCell>
        <UserObject label="" tags="Background" id="133">
          <mxCell style="vsdxID=55;edgeStyle=none;startArrow=none;endArrow=none;startSize=5;endSize=5;strokeColor=#3a414a;spacingTop=-3;spacingBottom=-3;spacingLeft=-3;spacingRight=-3;verticalAlign=middle;html=1;labelBackgroundColor=none;rounded=1;" parent="1" edge="1">
            <mxGeometry relative="1" as="geometry">
              <mxPoint x="-1" y="-1" as="offset" />
              <Array as="points" />
              <mxPoint x="406" y="1498" as="sourcePoint" />
              <mxPoint x="533" y="1562" as="targetPoint" />
            </mxGeometry>
          </mxCell>
        </UserObject>
        <UserObject label="" tags="Background" id="61">
          <mxCell style="vsdxID=56;fillColor=none;gradientColor=none;strokeColor=none;spacingTop=-3;spacingBottom=-3;spacingLeft=-3;spacingRight=-3;points=[[0,0.5,0],[1,0.5,0],[0.5,1,0],[0.5,0,0],[-2.25,1.44,0]];labelBackgroundColor=none;rounded=1;html=1;whiteSpace=wrap;" parent="1" vertex="1">
            <mxGeometry x="533" y="1651" width="101" height="76" as="geometry" />
          </mxCell>
        </UserObject>
        <mxCell id="62" style="vsdxID=57;fillColor=#FFFFFF;gradientColor=none;shape=stencil(hVLRDoIwDPyavZLSiouPBvUH/AICUxYVyAAFv95JiW5TI0/t7cpdmxOUtmXWKIHQdqY+qZsuulLQRiDqqlRGd7YStBWUHmqjjqbuq4L7JrNMhAlRBc/ETzZCZvK9vivGIKJYJvzAk5f6+lQc5hkAfhy5T7jdMTfvDZPjkD0DUkbJiqEBX9CSZhYGYwN5KjCST5hkYf1FGTEi6Wu//zrLgK/qeiOfQZ/LflUNtrUmFrByPukbcE36nn4t/s+Ae0zf0xDedsQ/Jikc+HUFW0/x4uDp85nT+UqFLcI4WoijTNsH);strokeColor=#3a414a;spacingTop=-3;spacingBottom=-3;spacingLeft=-3;spacingRight=-3;points=[[0,0.5,0],[1,0.5,0],[0.5,1,0],[0.5,0,0]];labelBackgroundColor=none;rounded=1;html=1;whiteSpace=wrap;" parent="61" vertex="1">
          <mxGeometry width="101" height="76" as="geometry" />
        </mxCell>
        <mxCell id="63" value="&lt;div style=&quot;font-size: 1px&quot;&gt;&lt;p style=&quot;text-align:center;margin-left:0;margin-right:0;margin-top:0px;margin-bottom:0px;text-indent:0;vertical-align:middle;direction:ltr;&quot;&gt;&lt;font style=&quot;font-size:11.29px;font-family:Arial;color:#000000;direction:ltr;letter-spacing:0px;line-height:100%;opacity:1&quot;&gt;Open React folder&lt;/font&gt;&lt;/p&gt;&lt;/div&gt;" style="text;vsdxID=56;fillColor=none;gradientColor=none;strokeColor=none;spacingTop=-3;spacingBottom=-3;spacingLeft=-3;spacingRight=-3;points=[[0,0.5,0],[1,0.5,0],[0.5,1,0],[0.5,0,0],[-2.25,1.44,0]];labelBackgroundColor=none;rounded=1;html=1;whiteSpace=wrap;verticalAlign=middle;align=center;overflow=width;;html=1;" parent="61" vertex="1">
          <mxGeometry y="-0.2" width="101.6" height="76.2" as="geometry" />
        </mxCell>
        <UserObject label="" tags="Background" id="134">
          <mxCell style="vsdxID=58;edgeStyle=none;dashed=1;startArrow=none;endArrow=block;startSize=5;endSize=5;strokeColor=#3a414a;spacingTop=-3;spacingBottom=-3;spacingLeft=-3;spacingRight=-3;verticalAlign=middle;html=1;labelBackgroundColor=#ffffff;rounded=1;" parent="1" edge="1">
            <mxGeometry relative="1" as="geometry">
              <Array as="points" />
              <mxPoint x="863" y="1879" as="sourcePoint" />
              <mxPoint x="635" y="1689" as="targetPoint" />
            </mxGeometry>
          </mxCell>
        </UserObject>
        <mxCell id="135" value="&lt;div style=&quot;font-size: 1px&quot;&gt;&lt;p style=&quot;text-align:left;margin-left:0;margin-right:0;margin-top:0px;margin-bottom:0px;text-indent:0;vertical-align:middle;direction:ltr;&quot;&gt;&lt;font style=&quot;font-size:11.29px;font-family:Arial;color:#333333;direction:ltr;letter-spacing:0px;line-height:100%;opacity:1&quot;&gt;&lt;b&gt;&amp;lt;&amp;lt;extend&amp;gt;&amp;gt;&lt;/b&gt;&lt;/font&gt;&lt;/p&gt;&lt;/div&gt;" style="text;vsdxID=58;edgeStyle=none;dashed=1;startArrow=none;endArrow=block;startSize=5;endSize=5;strokeColor=none;spacingTop=-3;spacingBottom=-3;spacingLeft=-3;spacingRight=-3;verticalAlign=middle;html=1;labelBackgroundColor=#ffffff;rounded=1;align=left;overflow=width;fillColor=none;gradientColor=none;whiteSpace=wrap;;html=1;" parent="134" vertex="1">
          <mxGeometry width="62.63" height="13.54" relative="1" as="geometry">
            <mxPoint x="-31.315" y="17.23" as="offset" />
          </mxGeometry>
        </mxCell>
        <UserObject label="" tags="Background" id="136">
          <mxCell style="vsdxID=59;edgeStyle=none;dashed=1;startArrow=none;endArrow=block;startSize=5;endSize=5;strokeColor=#3a414a;spacingTop=-3;spacingBottom=-3;spacingLeft=-3;spacingRight=-3;verticalAlign=middle;html=1;labelBackgroundColor=#ffffff;rounded=1;" parent="1" edge="1">
            <mxGeometry relative="1" as="geometry">
              <Array as="points" />
              <mxPoint x="863" y="1752" as="sourcePoint" />
              <mxPoint x="635" y="1687" as="targetPoint" />
            </mxGeometry>
          </mxCell>
        </UserObject>
        <mxCell id="137" value="&lt;div style=&quot;font-size: 1px&quot;&gt;&lt;p style=&quot;text-align:left;margin-left:0;margin-right:0;margin-top:0px;margin-bottom:0px;text-indent:0;vertical-align:middle;direction:ltr;&quot;&gt;&lt;font style=&quot;font-size:11.29px;font-family:Arial;color:#333333;direction:ltr;letter-spacing:0px;line-height:100%;opacity:1&quot;&gt;&lt;b&gt;&amp;lt;&amp;lt;extend&amp;gt;&amp;gt;&lt;/b&gt;&lt;/font&gt;&lt;/p&gt;&lt;/div&gt;" style="text;vsdxID=59;edgeStyle=none;dashed=1;startArrow=none;endArrow=block;startSize=5;endSize=5;strokeColor=none;spacingTop=-3;spacingBottom=-3;spacingLeft=-3;spacingRight=-3;verticalAlign=middle;html=1;labelBackgroundColor=#ffffff;rounded=1;align=left;overflow=width;fillColor=none;gradientColor=none;whiteSpace=wrap;;html=1;" parent="136" vertex="1">
          <mxGeometry width="62.63" height="13.54" relative="1" as="geometry">
            <mxPoint x="-31.315" y="17.23" as="offset" />
          </mxGeometry>
        </mxCell>
        <UserObject label="" tags="Background" id="138">
          <mxCell style="vsdxID=60;edgeStyle=none;startArrow=none;endArrow=none;startSize=5;endSize=5;strokeColor=#3a414a;spacingTop=-3;spacingBottom=-3;spacingLeft=-3;spacingRight=-3;verticalAlign=middle;html=1;labelBackgroundColor=none;rounded=1;" parent="1" edge="1">
            <mxGeometry relative="1" as="geometry">
              <mxPoint as="offset" />
              <Array as="points" />
              <mxPoint x="406" y="1498" as="sourcePoint" />
              <mxPoint x="533" y="1689" as="targetPoint" />
            </mxGeometry>
          </mxCell>
        </UserObject>
        <UserObject label="" tags="Background" id="64">
          <mxCell style="vsdxID=61;fillColor=none;gradientColor=none;strokeColor=none;spacingTop=-3;spacingBottom=-3;spacingLeft=-3;spacingRight=-3;points=[[0,0.5,0],[1,0.5,0],[0.5,1,0],[0.5,0,0]];labelBackgroundColor=none;rounded=1;html=1;whiteSpace=wrap;" parent="1" vertex="1">
            <mxGeometry x="863" y="1714" width="101" height="76" as="geometry" />
          </mxCell>
        </UserObject>
        <mxCell id="65" style="vsdxID=62;fillColor=#FFFFFF;gradientColor=none;shape=stencil(hVLRDoIwDPyavZLSiouPBvUH/AICUxYVyAAFv95JiW5TI0/t7cpdmxOUtmXWKIHQdqY+qZsuulLQRiDqqlRGd7YStBWUHmqjjqbuq4L7JrNMhAlRBc/ETzZCZvK9vivGIKJYJvzAk5f6+lQc5hkAfhy5T7jdMTfvDZPjkD0DUkbJiqEBX9CSZhYGYwN5KjCST5hkYf1FGTEi6Wu//zrLgK/qeiOfQZ/LflUNtrUmFrByPukbcE36nn4t/s+Ae0zf0xDedsQ/Jikc+HUFW0/x4uDp85nT+UqFLcI4WoijTNsH);strokeColor=#3a414a;spacingTop=-3;spacingBottom=-3;spacingLeft=-3;spacingRight=-3;points=[[0,0.5,0],[1,0.5,0],[0.5,1,0],[0.5,0,0]];labelBackgroundColor=none;rounded=1;html=1;whiteSpace=wrap;" parent="64" vertex="1">
          <mxGeometry width="101" height="76" as="geometry" />
        </mxCell>
        <mxCell id="66" value="&lt;div style=&quot;font-size: 1px&quot;&gt;&lt;p style=&quot;text-align:center;margin-left:0;margin-right:0;margin-top:0px;margin-bottom:0px;text-indent:0;vertical-align:middle;direction:ltr;&quot;&gt;&lt;font style=&quot;font-size:11.29px;font-family:Arial;color:#000000;direction:ltr;letter-spacing:0px;line-height:100%;opacity:1&quot;&gt;Download file&lt;/font&gt;&lt;/p&gt;&lt;/div&gt;" style="text;vsdxID=61;fillColor=none;gradientColor=none;strokeColor=none;spacingTop=-3;spacingBottom=-3;spacingLeft=-3;spacingRight=-3;points=[[0,0.5,0],[1,0.5,0],[0.5,1,0],[0.5,0,0]];labelBackgroundColor=none;rounded=1;html=1;whiteSpace=wrap;verticalAlign=middle;align=center;overflow=width;;html=1;" parent="64" vertex="1">
          <mxGeometry y="-0.2" width="101.6" height="76.2" as="geometry" />
        </mxCell>
        <UserObject label="" tags="Background" id="67">
          <mxCell style="vsdxID=63;fillColor=none;gradientColor=none;strokeColor=none;spacingTop=-3;spacingBottom=-3;spacingLeft=-3;spacingRight=-3;points=[[0,0.5,0],[1,0.5,0],[0.5,1,0],[0.5,0,0]];labelBackgroundColor=none;rounded=1;html=1;whiteSpace=wrap;" parent="1" vertex="1">
            <mxGeometry x="863" y="1841" width="101" height="76" as="geometry" />
          </mxCell>
        </UserObject>
        <mxCell id="68" style="vsdxID=64;fillColor=#FFFFFF;gradientColor=none;shape=stencil(hVLRDoIwDPyavZLSiouPBvUH/AICUxYVyAAFv95JiW5TI0/t7cpdmxOUtmXWKIHQdqY+qZsuulLQRiDqqlRGd7YStBWUHmqjjqbuq4L7JrNMhAlRBc/ETzZCZvK9vivGIKJYJvzAk5f6+lQc5hkAfhy5T7jdMTfvDZPjkD0DUkbJiqEBX9CSZhYGYwN5KjCST5hkYf1FGTEi6Wu//zrLgK/qeiOfQZ/LflUNtrUmFrByPukbcE36nn4t/s+Ae0zf0xDedsQ/Jikc+HUFW0/x4uDp85nT+UqFLcI4WoijTNsH);strokeColor=#3a414a;spacingTop=-3;spacingBottom=-3;spacingLeft=-3;spacingRight=-3;points=[[0,0.5,0],[1,0.5,0],[0.5,1,0],[0.5,0,0]];labelBackgroundColor=none;rounded=1;html=1;whiteSpace=wrap;" parent="67" vertex="1">
          <mxGeometry width="101" height="76" as="geometry" />
        </mxCell>
        <mxCell id="69" value="&lt;div style=&quot;font-size: 1px&quot;&gt;&lt;p style=&quot;text-align:center;margin-left:0;margin-right:0;margin-top:0px;margin-bottom:0px;text-indent:0;vertical-align:middle;direction:ltr;&quot;&gt;&lt;font style=&quot;font-size:11.29px;font-family:Arial;color:#000000;direction:ltr;letter-spacing:0px;line-height:100%;opacity:1&quot;&gt;upload file&lt;/font&gt;&lt;/p&gt;&lt;/div&gt;" style="text;vsdxID=63;fillColor=none;gradientColor=none;strokeColor=none;spacingTop=-3;spacingBottom=-3;spacingLeft=-3;spacingRight=-3;points=[[0,0.5,0],[1,0.5,0],[0.5,1,0],[0.5,0,0]];labelBackgroundColor=none;rounded=1;html=1;whiteSpace=wrap;verticalAlign=middle;align=center;overflow=width;;html=1;" parent="67" vertex="1">
          <mxGeometry y="-0.2" width="101.6" height="76.2" as="geometry" />
        </mxCell>
        <UserObject label="" tags="Background" id="70">
          <mxCell style="vsdxID=65;fillColor=none;gradientColor=none;strokeColor=none;spacingTop=-3;spacingBottom=-3;spacingLeft=-3;spacingRight=-3;points=[[0,0.5,0],[1,0.5,0],[0.5,1,0],[0.5,0,0],[0,1,0]];labelBackgroundColor=none;rounded=1;html=1;whiteSpace=wrap;" parent="1" vertex="1">
            <mxGeometry x="584" y="1104" width="101" height="76" as="geometry" />
          </mxCell>
        </UserObject>
        <mxCell id="71" style="vsdxID=66;fillColor=#FFFFFF;gradientColor=none;shape=stencil(hVLRDoIwDPyavZLSiouPBvUH/AICUxYVyAAFv95JiW5TI0/t7cpdmxOUtmXWKIHQdqY+qZsuulLQRiDqqlRGd7YStBWUHmqjjqbuq4L7JrNMhAlRBc/ETzZCZvK9vivGIKJYJvzAk5f6+lQc5hkAfhy5T7jdMTfvDZPjkD0DUkbJiqEBX9CSZhYGYwN5KjCST5hkYf1FGTEi6Wu//zrLgK/qeiOfQZ/LflUNtrUmFrByPukbcE36nn4t/s+Ae0zf0xDedsQ/Jikc+HUFW0/x4uDp85nT+UqFLcI4WoijTNsH);strokeColor=#3a414a;spacingTop=-3;spacingBottom=-3;spacingLeft=-3;spacingRight=-3;points=[[0,0.5,0],[1,0.5,0],[0.5,1,0],[0.5,0,0]];labelBackgroundColor=none;rounded=1;html=1;whiteSpace=wrap;" parent="70" vertex="1">
          <mxGeometry width="101" height="76" as="geometry" />
        </mxCell>
        <mxCell id="72" value="&lt;div style=&quot;font-size: 1px&quot;&gt;&lt;p style=&quot;text-align:center;margin-left:0;margin-right:0;margin-top:0px;margin-bottom:0px;text-indent:0;vertical-align:middle;direction:ltr;&quot;&gt;&lt;font style=&quot;font-size:11.29px;font-family:Arial;color:#000000;direction:ltr;letter-spacing:0px;line-height:100%;opacity:1&quot;&gt;Enter check-in details&lt;/font&gt;&lt;/p&gt;&lt;/div&gt;" style="text;vsdxID=65;fillColor=none;gradientColor=none;strokeColor=none;spacingTop=-3;spacingBottom=-3;spacingLeft=-3;spacingRight=-3;points=[[0,0.5,0],[1,0.5,0],[0.5,1,0],[0.5,0,0],[0,1,0]];labelBackgroundColor=none;rounded=1;html=1;whiteSpace=wrap;verticalAlign=middle;align=center;overflow=width;;html=1;" parent="70" vertex="1">
          <mxGeometry y="-0.2" width="101.6" height="76.2" as="geometry" />
        </mxCell>
        <UserObject label="" tags="Background" id="139">
          <mxCell style="vsdxID=67;edgeStyle=none;dashed=1;startArrow=none;endArrow=block;startSize=5;endSize=5;strokeColor=#3a414a;spacingTop=-3;spacingBottom=-3;spacingLeft=-3;spacingRight=-3;verticalAlign=middle;html=1;labelBackgroundColor=#ffffff;rounded=1;" parent="1" edge="1">
            <mxGeometry relative="1" as="geometry">
              <Array as="points" />
              <mxPoint x="419" y="1144" as="sourcePoint" />
              <mxPoint x="583" y="1144" as="targetPoint" />
            </mxGeometry>
          </mxCell>
        </UserObject>
        <mxCell id="140" value="&lt;div style=&quot;font-size: 1px&quot;&gt;&lt;p style=&quot;text-align:left;margin-left:0;margin-right:0;margin-top:0px;margin-bottom:0px;text-indent:0;vertical-align:middle;direction:ltr;&quot;&gt;&lt;font style=&quot;font-size:11.29px;font-family:Arial;color:#333333;direction:ltr;letter-spacing:0px;line-height:100%;opacity:1&quot;&gt;&lt;b&gt;&amp;lt;&amp;lt;include&amp;gt;&amp;gt;&lt;/b&gt;&lt;/font&gt;&lt;/p&gt;&lt;/div&gt;" style="text;vsdxID=67;edgeStyle=none;dashed=1;startArrow=none;endArrow=block;startSize=5;endSize=5;strokeColor=none;spacingTop=-3;spacingBottom=-3;spacingLeft=-3;spacingRight=-3;verticalAlign=middle;html=1;labelBackgroundColor=#ffffff;rounded=1;align=left;overflow=width;fillColor=none;gradientColor=none;whiteSpace=wrap;;html=1;" parent="139" vertex="1">
          <mxGeometry width="65.77" height="13.54" relative="1" as="geometry">
            <mxPoint x="-20.884999999999998" y="19.23" as="offset" />
          </mxGeometry>
        </mxCell>
        <UserObject label="" tags="Background" id="141">
          <mxCell style="vsdxID=68;edgeStyle=none;startArrow=none;endArrow=none;startSize=5;endSize=5;strokeColor=#3a414a;spacingTop=-3;spacingBottom=-3;spacingLeft=-3;spacingRight=-3;verticalAlign=middle;html=1;labelBackgroundColor=none;rounded=1;" parent="1" edge="1">
            <mxGeometry relative="1" as="geometry">
              <mxPoint x="-1" y="-1" as="offset" />
              <Array as="points" />
              <mxPoint x="128" y="1313" as="sourcePoint" />
              <mxPoint x="317" y="1003" as="targetPoint" />
            </mxGeometry>
          </mxCell>
        </UserObject>
        <UserObject label="" tags="Background" id="73">
          <mxCell style="vsdxID=69;fillColor=none;gradientColor=none;strokeColor=none;spacingTop=-3;spacingBottom=-3;spacingLeft=-3;spacingRight=-3;points=[[0,0.5,0],[1,0.5,0],[0.5,1,0],[0.5,0,0]];labelBackgroundColor=none;rounded=1;html=1;whiteSpace=wrap;" parent="1" vertex="1">
            <mxGeometry x="863" y="1511" width="101" height="76" as="geometry" />
          </mxCell>
        </UserObject>
        <mxCell id="74" style="vsdxID=70;fillColor=#FFFFFF;gradientColor=none;shape=stencil(hVLRDoIwDPyavZLSiouPBvUH/AICUxYVyAAFv95JiW5TI0/t7cpdmxOUtmXWKIHQdqY+qZsuulLQRiDqqlRGd7YStBWUHmqjjqbuq4L7JrNMhAlRBc/ETzZCZvK9vivGIKJYJvzAk5f6+lQc5hkAfhy5T7jdMTfvDZPjkD0DUkbJiqEBX9CSZhYGYwN5KjCST5hkYf1FGTEi6Wu//zrLgK/qeiOfQZ/LflUNtrUmFrByPukbcE36nn4t/s+Ae0zf0xDedsQ/Jikc+HUFW0/x4uDp85nT+UqFLcI4WoijTNsH);strokeColor=#3a414a;spacingTop=-3;spacingBottom=-3;spacingLeft=-3;spacingRight=-3;points=[[0,0.5,0],[1,0.5,0],[0.5,1,0],[0.5,0,0]];labelBackgroundColor=none;rounded=1;html=1;whiteSpace=wrap;" parent="73" vertex="1">
          <mxGeometry width="101" height="76" as="geometry" />
        </mxCell>
        <mxCell id="75" value="&lt;div style=&quot;font-size: 1px&quot;&gt;&lt;p style=&quot;text-align:center;margin-left:0;margin-right:0;margin-top:0px;margin-bottom:0px;text-indent:0;vertical-align:middle;direction:ltr;&quot;&gt;&lt;font style=&quot;font-size:11.29px;font-family:Arial;color:#000000;direction:ltr;letter-spacing:0px;line-height:100%;opacity:1&quot;&gt;Download file&lt;/font&gt;&lt;/p&gt;&lt;/div&gt;" style="text;vsdxID=69;fillColor=none;gradientColor=none;strokeColor=none;spacingTop=-3;spacingBottom=-3;spacingLeft=-3;spacingRight=-3;points=[[0,0.5,0],[1,0.5,0],[0.5,1,0],[0.5,0,0]];labelBackgroundColor=none;rounded=1;html=1;whiteSpace=wrap;verticalAlign=middle;align=center;overflow=width;;html=1;" parent="73" vertex="1">
          <mxGeometry y="-0.2" width="101.6" height="76.2" as="geometry" />
        </mxCell>
        <UserObject label="" tags="Background" id="76">
          <mxCell style="vsdxID=71;fillColor=none;gradientColor=none;strokeColor=none;spacingTop=-3;spacingBottom=-3;spacingLeft=-3;spacingRight=-3;points=[[0,0.5,0],[1,0.5,0],[0.5,1,0],[0.5,0,0]];labelBackgroundColor=none;rounded=1;html=1;whiteSpace=wrap;" parent="1" vertex="1">
            <mxGeometry x="863" y="1612" width="101" height="76" as="geometry" />
          </mxCell>
        </UserObject>
        <mxCell id="77" style="vsdxID=72;fillColor=#FFFFFF;gradientColor=none;shape=stencil(hVLRDoIwDPyavZLSiouPBvUH/AICUxYVyAAFv95JiW5TI0/t7cpdmxOUtmXWKIHQdqY+qZsuulLQRiDqqlRGd7YStBWUHmqjjqbuq4L7JrNMhAlRBc/ETzZCZvK9vivGIKJYJvzAk5f6+lQc5hkAfhy5T7jdMTfvDZPjkD0DUkbJiqEBX9CSZhYGYwN5KjCST5hkYf1FGTEi6Wu//zrLgK/qeiOfQZ/LflUNtrUmFrByPukbcE36nn4t/s+Ae0zf0xDedsQ/Jikc+HUFW0/x4uDp85nT+UqFLcI4WoijTNsH);strokeColor=#3a414a;spacingTop=-3;spacingBottom=-3;spacingLeft=-3;spacingRight=-3;points=[[0,0.5,0],[1,0.5,0],[0.5,1,0],[0.5,0,0]];labelBackgroundColor=none;rounded=1;html=1;whiteSpace=wrap;" parent="76" vertex="1">
          <mxGeometry width="101" height="76" as="geometry" />
        </mxCell>
        <mxCell id="78" value="&lt;div style=&quot;font-size: 1px&quot;&gt;&lt;p style=&quot;text-align:center;margin-left:0;margin-right:0;margin-top:0px;margin-bottom:0px;text-indent:0;vertical-align:middle;direction:ltr;&quot;&gt;&lt;font style=&quot;font-size:11.29px;font-family:Arial;color:#000000;direction:ltr;letter-spacing:0px;line-height:100%;opacity:1&quot;&gt;upload file&lt;/font&gt;&lt;/p&gt;&lt;/div&gt;" style="text;vsdxID=71;fillColor=none;gradientColor=none;strokeColor=none;spacingTop=-3;spacingBottom=-3;spacingLeft=-3;spacingRight=-3;points=[[0,0.5,0],[1,0.5,0],[0.5,1,0],[0.5,0,0]];labelBackgroundColor=none;rounded=1;html=1;whiteSpace=wrap;verticalAlign=middle;align=center;overflow=width;;html=1;" parent="76" vertex="1">
          <mxGeometry y="-0.2" width="101.6" height="76.2" as="geometry" />
        </mxCell>
        <UserObject label="" tags="Background" id="79">
          <mxCell style="vsdxID=73;fillColor=none;gradientColor=none;strokeColor=none;spacingTop=-3;spacingBottom=-3;spacingLeft=-3;spacingRight=-3;points=[[0,0.5,0],[1,0.5,0],[0.5,1,0],[0.5,0,0]];labelBackgroundColor=none;rounded=1;html=1;whiteSpace=wrap;" parent="1" vertex="1">
            <mxGeometry x="317" y="2273" width="101" height="76" as="geometry" />
          </mxCell>
        </UserObject>
        <mxCell id="80" style="vsdxID=74;fillColor=#FFFFFF;gradientColor=none;shape=stencil(hVLRDoIwDPyavZLSiouPBvUH/AICUxYVyAAFv95JiW5TI0/t7cpdmxOUtmXWKIHQdqY+qZsuulLQRiDqqlRGd7YStBWUHmqjjqbuq4L7JrNMhAlRBc/ETzZCZvK9vivGIKJYJvzAk5f6+lQc5hkAfhy5T7jdMTfvDZPjkD0DUkbJiqEBX9CSZhYGYwN5KjCST5hkYf1FGTEi6Wu//zrLgK/qeiOfQZ/LflUNtrUmFrByPukbcE36nn4t/s+Ae0zf0xDedsQ/Jikc+HUFW0/x4uDp85nT+UqFLcI4WoijTNsH);strokeColor=#3a414a;spacingTop=-3;spacingBottom=-3;spacingLeft=-3;spacingRight=-3;points=[[0,0.5,0],[1,0.5,0],[0.5,1,0],[0.5,0,0]];labelBackgroundColor=none;rounded=1;html=1;whiteSpace=wrap;" parent="79" vertex="1">
          <mxGeometry width="101" height="76" as="geometry" />
        </mxCell>
        <mxCell id="81" value="&lt;div style=&quot;font-size: 1px&quot;&gt;&lt;p style=&quot;text-align:center;margin-left:0;margin-right:0;margin-top:0px;margin-bottom:0px;text-indent:0;vertical-align:middle;direction:ltr;&quot;&gt;&lt;font style=&quot;font-size:11.29px;font-family:Arial;color:#000000;direction:ltr;letter-spacing:0px;line-height:100%;opacity:1&quot;&gt;Log out&lt;/font&gt;&lt;/p&gt;&lt;/div&gt;" style="text;vsdxID=73;fillColor=none;gradientColor=none;strokeColor=none;spacingTop=-3;spacingBottom=-3;spacingLeft=-3;spacingRight=-3;points=[[0,0.5,0],[1,0.5,0],[0.5,1,0],[0.5,0,0]];labelBackgroundColor=none;rounded=1;html=1;whiteSpace=wrap;verticalAlign=middle;align=center;overflow=width;;html=1;" parent="79" vertex="1">
          <mxGeometry y="-0.2" width="101.6" height="76.2" as="geometry" />
        </mxCell>
        <UserObject label="" tags="Background" id="142">
          <mxCell style="vsdxID=75;edgeStyle=none;startArrow=none;endArrow=none;startSize=5;endSize=5;strokeColor=#3a414a;spacingTop=-3;spacingBottom=-3;spacingLeft=-3;spacingRight=-3;verticalAlign=middle;html=1;labelBackgroundColor=none;rounded=1;" parent="1" edge="1">
            <mxGeometry relative="1" as="geometry">
              <mxPoint x="-1" as="offset" />
              <Array as="points" />
              <mxPoint x="128" y="1319" as="sourcePoint" />
              <mxPoint x="317" y="2311" as="targetPoint" />
            </mxGeometry>
          </mxCell>
        </UserObject>
        <UserObject label="" tags="Background" id="82">
          <mxCell style="vsdxID=76;fillColor=none;gradientColor=none;strokeColor=none;spacingTop=-3;spacingBottom=-3;spacingLeft=-3;spacingRight=-3;points=[[0,0.5,0],[1,0.5,0],[0.5,1,0],[0.5,0,0]];labelBackgroundColor=none;rounded=1;html=1;whiteSpace=wrap;" parent="1" vertex="1">
            <mxGeometry x="812" y="1213" width="101" height="76" as="geometry" />
          </mxCell>
        </UserObject>
        <mxCell id="83" style="vsdxID=77;fillColor=#FFFFFF;gradientColor=none;shape=stencil(hVLRDoIwDPyavZLSiouPBvUH/AICUxYVyAAFv95JiW5TI0/t7cpdmxOUtmXWKIHQdqY+qZsuulLQRiDqqlRGd7YStBWUHmqjjqbuq4L7JrNMhAlRBc/ETzZCZvK9vivGIKJYJvzAk5f6+lQc5hkAfhy5T7jdMTfvDZPjkD0DUkbJiqEBX9CSZhYGYwN5KjCST5hkYf1FGTEi6Wu//zrLgK/qeiOfQZ/LflUNtrUmFrByPukbcE36nn4t/s+Ae0zf0xDedsQ/Jikc+HUFW0/x4uDp85nT+UqFLcI4WoijTNsH);strokeColor=#3a414a;spacingTop=-3;spacingBottom=-3;spacingLeft=-3;spacingRight=-3;points=[[0,0.5,0],[1,0.5,0],[0.5,1,0],[0.5,0,0]];labelBackgroundColor=none;rounded=1;html=1;whiteSpace=wrap;" parent="82" vertex="1">
          <mxGeometry width="101" height="76" as="geometry" />
        </mxCell>
        <mxCell id="84" value="&lt;div style=&quot;font-size: 1px&quot;&gt;&lt;p style=&quot;text-align:center;margin-left:0;margin-right:0;margin-top:0px;margin-bottom:0px;text-indent:0;vertical-align:middle;direction:ltr;&quot;&gt;&lt;font style=&quot;font-size:11.29px;font-family:Arial;color:#000000;direction:ltr;letter-spacing:0px;line-height:100%;opacity:1&quot;&gt; Generate Report&lt;/font&gt;&lt;/p&gt;&lt;/div&gt;" style="text;vsdxID=76;fillColor=none;gradientColor=none;strokeColor=none;spacingTop=-3;spacingBottom=-3;spacingLeft=-3;spacingRight=-3;points=[[0,0.5,0],[1,0.5,0],[0.5,1,0],[0.5,0,0]];labelBackgroundColor=none;rounded=1;html=1;whiteSpace=wrap;verticalAlign=middle;align=center;overflow=width;;html=1;" parent="82" vertex="1">
          <mxGeometry y="-0.2" width="101.6" height="76.2" as="geometry" />
        </mxCell>
        <UserObject label="" tags="Background" id="143">
          <mxCell style="vsdxID=78;edgeStyle=none;dashed=1;startArrow=block;endArrow=none;startSize=5;endSize=5;strokeColor=#3a414a;spacingTop=-3;spacingBottom=-3;spacingLeft=-3;spacingRight=-3;verticalAlign=middle;html=1;labelBackgroundColor=#ffffff;rounded=1;" parent="1" edge="1">
            <mxGeometry relative="1" as="geometry">
              <Array as="points" />
              <mxPoint x="673" y="1251" as="sourcePoint" />
              <mxPoint x="812" y="1251" as="targetPoint" />
            </mxGeometry>
          </mxCell>
        </UserObject>
        <mxCell id="144" value="&lt;div style=&quot;font-size: 1px&quot;&gt;&lt;p style=&quot;text-align:left;margin-left:0;margin-right:0;margin-top:0px;margin-bottom:0px;text-indent:0;vertical-align:middle;direction:ltr;&quot;&gt;&lt;font style=&quot;font-size:11.29px;font-family:Arial;color:#333333;direction:ltr;letter-spacing:0px;line-height:100%;opacity:1&quot;&gt;&lt;b&gt;&amp;lt;&amp;lt;extend&amp;gt;&amp;gt;&lt;/b&gt;&lt;/font&gt;&lt;/p&gt;&lt;/div&gt;" style="text;vsdxID=78;edgeStyle=none;dashed=1;startArrow=block;endArrow=none;startSize=5;endSize=5;strokeColor=none;spacingTop=-3;spacingBottom=-3;spacingLeft=-3;spacingRight=-3;verticalAlign=middle;html=1;labelBackgroundColor=#ffffff;rounded=1;align=left;overflow=width;fillColor=none;gradientColor=none;whiteSpace=wrap;;html=1;" parent="143" vertex="1">
          <mxGeometry width="62.63" height="13.54" relative="1" as="geometry">
            <mxPoint x="-32.315" y="18.23" as="offset" />
          </mxGeometry>
        </mxCell>
        <UserObject label="" tags="Background" id="85">
          <mxCell style="vsdxID=79;fillColor=none;gradientColor=none;strokeColor=none;spacingTop=-3;spacingBottom=-3;spacingLeft=-3;spacingRight=-3;points=[[0,0.5,0],[1,0.5,0],[0.5,1,0],[0.5,0,0]];labelBackgroundColor=none;rounded=1;html=1;whiteSpace=wrap;" parent="1" vertex="1">
            <mxGeometry x="1244" y="1460" width="76" height="76" as="geometry" />
          </mxCell>
        </UserObject>
        <mxCell id="86" style="vsdxID=80;fillColor=#FFFFFF;gradientColor=none;shape=stencil(hVNbEoIwDDxNf5k0gWH4dHxcwBMwUqUjglNQwdNbCI5tffWr2Wy66TYVtGzL/KwEQtuZ5qhuuuhKQSuBqOtSGd3ZnaC1oOW+MepgmktdcHzOLRNhQlTBNXJkI+Rmt9V3xRhEJNOEE1x5aq6jYj/XAHBy4DjjcMPc3cUwWYbsGciSKM4Y6pGhNI2SGRowKOuJgeR5DPmESRYWH5QRo1j62q9TZxnwVd3eyGfQ+2Un1UrXjje+M/KnM4EvsZUGZwUeubfxm//m0D9/XNf9lvrwEZ6K33qkkE/vBnxw6/ck2c00sjzMuqp44t18OOIW4u9B6wc=);strokeColor=#3a414a;spacingTop=-3;spacingBottom=-3;spacingLeft=-3;spacingRight=-3;points=[[0,0.5,0],[1,0.5,0],[0.5,1,0],[0.5,0,0]];labelBackgroundColor=none;rounded=1;html=1;whiteSpace=wrap;" parent="85" vertex="1">
          <mxGeometry width="76" height="76" as="geometry" />
        </mxCell>
        <mxCell id="87" style="vsdxID=81;fillColor=#FFFFFF;gradientColor=none;shape=stencil(dVFRDoIwDD3NfpetdSF+GsQLeAICUxYjIxMUPb1jHZih9qt9fe17aRnmt6bsNANx65296Iep+4bhngGYttHO9D5jWDDMT9bps7NDW1PdlZ4JIiC6phk5sUGUrjqalyZMcJSZogZNXu19UhzjjBDUfM51KA/ErQZHZLlmz4DiyoOfiFIjUD/LuNrGkQhBXDEi1WpeiUk/OBC7HyYA+EamNpadUUOkkn9dYkrH7xsEBz4P9w43oVctJ/LJ+jceor9i8QY=);strokeColor=#3a414a;spacingTop=-3;spacingBottom=-3;spacingLeft=-3;spacingRight=-3;points=[[0,0.5,0],[1,0.5,0],[0.5,1,0],[0.5,0,0]];labelBackgroundColor=none;rounded=1;html=1;whiteSpace=wrap;" parent="85" vertex="1">
          <mxGeometry width="76" height="76" as="geometry" />
        </mxCell>
        <mxCell id="88" value="&lt;div style=&quot;font-size: 1px&quot;&gt;&lt;p style=&quot;text-align:center;margin-left:0;margin-right:0;margin-top:0px;margin-bottom:0px;text-indent:0;vertical-align:middle;direction:ltr;&quot;&gt;&lt;font style=&quot;font-size:14.11px;font-family:Arial;color:#3a414a;direction:ltr;letter-spacing:0px;line-height:100%;opacity:1&quot;&gt;Relational Database&lt;/font&gt;&lt;/p&gt;&lt;/div&gt;" style="text;vsdxID=79;fillColor=none;gradientColor=none;strokeColor=none;spacingTop=-3;spacingBottom=-3;spacingLeft=-3;spacingRight=-3;points=[[0,0.5,0],[1,0.5,0],[0.5,1,0],[0.5,0,0]];labelBackgroundColor=none;rounded=1;html=1;whiteSpace=wrap;verticalAlign=middle;align=center;overflow=width;;html=1;" parent="85" vertex="1">
          <mxGeometry x="3.17" y="18.22" width="69.85" height="54.61" as="geometry" />
        </mxCell>
        <UserObject label="" tags="Background" id="89">
          <mxCell style="vsdxID=82;fillColor=none;gradientColor=none;strokeColor=none;spacingTop=-3;spacingBottom=-3;spacingLeft=-3;spacingRight=-3;points=[[0,0.5,0],[1,0.5,0],[0.5,1,0],[0.5,0,0]];labelBackgroundColor=none;rounded=1;html=1;whiteSpace=wrap;" parent="1" vertex="1">
            <mxGeometry x="1168" y="2117" width="152" height="190" as="geometry" />
          </mxCell>
        </UserObject>
        <mxCell id="90" style="vsdxID=83;fillColor=#FFFFFF;gradientColor=none;shape=stencil(hVJLrsIwDDxNtpFjN1QsEZ8LcIKKBho9oCiU7+kJtUENLbyskvGMPXJG0fRYFQenEI5NqP/cxZdNpWimEP2+csE38aZormi6roPbhPq0L/l9KCIToUVcyRrzZCMUYbX0d8cYaDK55QIrd/X5OfHK9VGmpXqTJkaPWmDB9NUpMN/0BIKYXI9zhq7IkI1QckQhZSRtXgoSBQiFPimtD5gMWMkwNdJtK5PIapulw7t2qc+ioTUMju+qBLIaoXsodfM2LG/4vQP4x8C3LZu0O/Y+Dn+7pZ7g+1LivY0ih9Rvt5zkd3zi5TO6EeLY0/wB);strokeColor=#3a414a;spacingTop=-3;spacingBottom=-3;spacingLeft=-3;spacingRight=-3;points=[[0,0.5,0],[1,0.5,0],[0.5,1,0],[0.5,0,0]];labelBackgroundColor=none;rounded=1;html=1;whiteSpace=wrap;" parent="89" vertex="1">
          <mxGeometry width="152" height="190" as="geometry" />
        </mxCell>
        <mxCell id="91" style="vsdxID=84;fillColor=#FFFFFF;gradientColor=none;shape=stencil(tZJNbsMgEIVPw9IjYAJO1ml6gZ4AxcRGdY2FaZP29MEeIoUkjdRFd8x7H8wPw3A7dWa0TPIpBv9uj66JHcMXJqUbOhtcTCeGO4bbgw+2Df5zaCgeTSIlXxTb0B0x05KbsH9zP5Y0DihqRQbd/PBfc8YT+YqT902hRBD1orwS3bvhd1oh6Gs4ZZ5ryrAGLgkPmV/BOtd4eU/AGssnNWx0ZipzclMVfDTR+SH3Q15vQmurlK869KYtrOlo7XgnP2xH8LKfjQRddP+3WT2llSpnVVbyj3WUMK6gfvLBtxO5w9NhWb0loK299m7XNEm04rg7Aw==);strokeColor=#3a414a;spacingTop=-3;spacingBottom=-3;spacingLeft=-3;spacingRight=-3;points=[[0,0.5,0],[1,0.5,0],[0.5,1,0],[0.5,0,0]];labelBackgroundColor=none;rounded=1;html=1;whiteSpace=wrap;" parent="89" vertex="1">
          <mxGeometry width="152" height="190" as="geometry" />
        </mxCell>
        <mxCell id="92" style="vsdxID=85;fillColor=#FFFFFF;gradientColor=none;shape=stencil(vZPBcoMgEIafhqMMLK3iOU1foE/AVKJMrThIEtunL7omI8Tk1nhid3/359thidgNjeo1ATZ4Z7/02VS+IeKNAJiu0c74cCJiT8TuYJ2unT12Fca9Ckpgc0ZX+A+f1MCU+/wwvxpzgkpWrr8cRdjl254m9xG1DEs/GMEcvaMw9JzcFiFQVqLWLWJOc4mZq+Q16rb0HjM1miFz1itvbBfVWuVqnQWn7NCqOioNZ637VZqv79aabgVRFpvOdzhkHnMAhZiDs62pPIEjNS7lI46Cpxy8iDhuxnLt//8o6Vu4WG+ycCpF+rZeYpbNwTyB48F+hMO8kZcgXdeQwlUX+z8=);strokeColor=#3a414a;spacingTop=-3;spacingBottom=-3;spacingLeft=-3;spacingRight=-3;points=[[0,0.5,0],[1,0.5,0],[0.5,1,0],[0.5,0,0]];labelBackgroundColor=none;rounded=1;html=1;whiteSpace=wrap;" parent="89" vertex="1">
          <mxGeometry width="152" height="190" as="geometry" />
        </mxCell>
        <mxCell id="93" value="&lt;div style=&quot;font-size: 1px&quot;&gt;&lt;p style=&quot;text-align:center;margin-left:0;margin-right:0;margin-top:0px;margin-bottom:0px;text-indent:0;vertical-align:middle;direction:ltr;&quot;&gt;&lt;font style=&quot;font-size:14.11px;font-family:Arial;color:#3a414a;direction:ltr;letter-spacing:0px;line-height:100%;opacity:1&quot;&gt;Admin&lt;/font&gt;&lt;/p&gt;&lt;/div&gt;" style="text;vsdxID=82;fillColor=none;gradientColor=none;strokeColor=none;spacingTop=-3;spacingBottom=-3;spacingLeft=-3;spacingRight=-3;points=[[0,0.5,0],[1,0.5,0],[0.5,1,0],[0.5,0,0]];labelBackgroundColor=none;rounded=1;html=1;whiteSpace=wrap;verticalAlign=middle;align=center;overflow=width;;html=1;" parent="89" vertex="1">
          <mxGeometry x="-50.8" y="176.03" width="254" height="13.97" as="geometry" />
        </mxCell>
        <UserObject label="" tags="Background" id="94">
          <mxCell style="vsdxID=86;fillColor=none;gradientColor=none;strokeColor=none;spacingTop=-3;spacingBottom=-3;spacingLeft=-3;spacingRight=-3;points=[[0,0.5,0],[1,0.5,0],[0.5,1,0],[0.5,0,0]];labelBackgroundColor=none;rounded=1;html=1;whiteSpace=wrap;" parent="1" vertex="1">
            <mxGeometry x="304" y="1213" width="101" height="76" as="geometry" />
          </mxCell>
        </UserObject>
        <mxCell id="95" style="vsdxID=87;fillColor=#FFFFFF;gradientColor=none;shape=stencil(hVLRDoIwDPyavZLSiouPBvUH/AICUxYVyAAFv95JiW5TI0/t7cpdmxOUtmXWKIHQdqY+qZsuulLQRiDqqlRGd7YStBWUHmqjjqbuq4L7JrNMhAlRBc/ETzZCZvK9vivGIKJYJvzAk5f6+lQc5hkAfhy5T7jdMTfvDZPjkD0DUkbJiqEBX9CSZhYGYwN5KjCST5hkYf1FGTEi6Wu//zrLgK/qeiOfQZ/LflUNtrUmFrByPukbcE36nn4t/s+Ae0zf0xDedsQ/Jikc+HUFW0/x4uDp85nT+UqFLcI4WoijTNsH);strokeColor=#3a414a;spacingTop=-3;spacingBottom=-3;spacingLeft=-3;spacingRight=-3;points=[[0,0.5,0],[1,0.5,0],[0.5,1,0],[0.5,0,0]];labelBackgroundColor=none;rounded=1;html=1;whiteSpace=wrap;" parent="94" vertex="1">
          <mxGeometry width="101" height="76" as="geometry" />
        </mxCell>
        <mxCell id="96" value="&lt;div style=&quot;font-size: 1px&quot;&gt;&lt;p style=&quot;text-align:center;margin-left:0;margin-right:0;margin-top:0px;margin-bottom:0px;text-indent:0;vertical-align:middle;direction:ltr;&quot;&gt;&lt;font style=&quot;font-size:11.29px;font-family:Arial;color:#000000;direction:ltr;letter-spacing:0px;line-height:100%;opacity:1&quot;&gt;Navigate dashboard&lt;/font&gt;&lt;/p&gt;&lt;/div&gt;" style="text;vsdxID=86;fillColor=none;gradientColor=none;strokeColor=none;spacingTop=-3;spacingBottom=-3;spacingLeft=-3;spacingRight=-3;points=[[0,0.5,0],[1,0.5,0],[0.5,1,0],[0.5,0,0]];labelBackgroundColor=none;rounded=1;html=1;whiteSpace=wrap;verticalAlign=middle;align=center;overflow=width;;html=1;" parent="94" vertex="1">
          <mxGeometry y="-0.2" width="101.6" height="76.2" as="geometry" />
        </mxCell>
        <UserObject label="" tags="Background" id="145">
          <mxCell style="vsdxID=88;edgeStyle=none;startArrow=none;endArrow=none;startSize=5;endSize=5;strokeColor=#3a414a;spacingTop=-3;spacingBottom=-3;spacingLeft=-3;spacingRight=-3;verticalAlign=middle;html=1;labelBackgroundColor=none;rounded=1;" parent="1" edge="1">
            <mxGeometry relative="1" as="geometry">
              <mxPoint as="offset" />
              <Array as="points" />
              <mxPoint x="406" y="1251" as="sourcePoint" />
              <mxPoint x="571" y="1251" as="targetPoint" />
            </mxGeometry>
          </mxCell>
        </UserObject>
        <UserObject label="" tags="Background" id="97">
          <mxCell style="vsdxID=89;fillColor=none;gradientColor=none;strokeColor=none;spacingTop=-3;spacingBottom=-3;spacingLeft=-3;spacingRight=-3;points=[[0,0.5,0],[1,0.5,0],[0.5,1,0],[0.5,0,0]];labelBackgroundColor=none;rounded=1;html=1;whiteSpace=wrap;" parent="1" vertex="1">
            <mxGeometry x="317" y="2174" width="101" height="76" as="geometry" />
          </mxCell>
        </UserObject>
        <mxCell id="98" style="vsdxID=90;fillColor=#FFFFFF;gradientColor=none;shape=stencil(hVLRDoIwDPyavZLSiouPBvUH/AICUxYVyAAFv95JiW5TI0/t7cpdmxOUtmXWKIHQdqY+qZsuulLQRiDqqlRGd7YStBWUHmqjjqbuq4L7JrNMhAlRBc/ETzZCZvK9vivGIKJYJvzAk5f6+lQc5hkAfhy5T7jdMTfvDZPjkD0DUkbJiqEBX9CSZhYGYwN5KjCST5hkYf1FGTEi6Wu//zrLgK/qeiOfQZ/LflUNtrUmFrByPukbcE36nn4t/s+Ae0zf0xDedsQ/Jikc+HUFW0/x4uDp85nT+UqFLcI4WoijTNsH);strokeColor=#3a414a;spacingTop=-3;spacingBottom=-3;spacingLeft=-3;spacingRight=-3;points=[[0,0.5,0],[1,0.5,0],[0.5,1,0],[0.5,0,0]];labelBackgroundColor=none;rounded=1;html=1;whiteSpace=wrap;" parent="97" vertex="1">
          <mxGeometry width="101" height="76" as="geometry" />
        </mxCell>
        <mxCell id="99" value="&lt;div style=&quot;font-size: 1px&quot;&gt;&lt;p style=&quot;text-align:center;margin-left:0;margin-right:0;margin-top:0px;margin-bottom:0px;text-indent:0;vertical-align:middle;direction:ltr;&quot;&gt;&lt;font style=&quot;font-size:11.29px;font-family:Arial;color:#000000;direction:ltr;letter-spacing:0px;line-height:100%;opacity:1&quot;&gt;Contact admin&lt;/font&gt;&lt;/p&gt;&lt;/div&gt;" style="text;vsdxID=89;fillColor=none;gradientColor=none;strokeColor=none;spacingTop=-3;spacingBottom=-3;spacingLeft=-3;spacingRight=-3;points=[[0,0.5,0],[1,0.5,0],[0.5,1,0],[0.5,0,0]];labelBackgroundColor=none;rounded=1;html=1;whiteSpace=wrap;verticalAlign=middle;align=center;overflow=width;;html=1;" parent="97" vertex="1">
          <mxGeometry y="-0.2" width="101.6" height="76.2" as="geometry" />
        </mxCell>
        <UserObject label="" tags="Background" id="100">
          <mxCell style="vsdxID=91;fillColor=none;gradientColor=none;strokeColor=none;spacingTop=-3;spacingBottom=-3;spacingLeft=-3;spacingRight=-3;points=[[0,0.5,0],[1,0.5,0],[0.5,1,0],[0.5,0,0],[0,1,0]];labelBackgroundColor=none;rounded=1;html=1;whiteSpace=wrap;" parent="1" vertex="1">
            <mxGeometry x="1014" y="1066" width="101" height="76" as="geometry" />
          </mxCell>
        </UserObject>
        <mxCell id="101" style="vsdxID=92;fillColor=#FFFFFF;gradientColor=none;shape=stencil(hVLRDoIwDPyavZLSiouPBvUH/AICUxYVyAAFv95JiW5TI0/t7cpdmxOUtmXWKIHQdqY+qZsuulLQRiDqqlRGd7YStBWUHmqjjqbuq4L7JrNMhAlRBc/ETzZCZvK9vivGIKJYJvzAk5f6+lQc5hkAfhy5T7jdMTfvDZPjkD0DUkbJiqEBX9CSZhYGYwN5KjCST5hkYf1FGTEi6Wu//zrLgK/qeiOfQZ/LflUNtrUmFrByPukbcE36nn4t/s+Ae0zf0xDedsQ/Jikc+HUFW0/x4uDp85nT+UqFLcI4WoijTNsH);strokeColor=#3a414a;spacingTop=-3;spacingBottom=-3;spacingLeft=-3;spacingRight=-3;points=[[0,0.5,0],[1,0.5,0],[0.5,1,0],[0.5,0,0]];labelBackgroundColor=none;rounded=1;html=1;whiteSpace=wrap;" parent="100" vertex="1">
          <mxGeometry width="101" height="76" as="geometry" />
        </mxCell>
        <mxCell id="102" value="&lt;div style=&quot;font-size: 1px&quot;&gt;&lt;p style=&quot;text-align:center;margin-left:0;margin-right:0;margin-top:0px;margin-bottom:0px;text-indent:0;vertical-align:middle;direction:ltr;&quot;&gt;&lt;font style=&quot;font-size:11.29px;font-family:Arial;color:#000000;direction:ltr;letter-spacing:0px;line-height:100%;opacity:1&quot;&gt;Change Password&lt;/font&gt;&lt;/p&gt;&lt;/div&gt;" style="text;vsdxID=91;fillColor=none;gradientColor=none;strokeColor=none;spacingTop=-3;spacingBottom=-3;spacingLeft=-3;spacingRight=-3;points=[[0,0.5,0],[1,0.5,0],[0.5,1,0],[0.5,0,0],[0,1,0]];labelBackgroundColor=none;rounded=1;html=1;whiteSpace=wrap;verticalAlign=middle;align=center;overflow=width;;html=1;" parent="100" vertex="1">
          <mxGeometry y="-0.2" width="101.6" height="76.2" as="geometry" />
        </mxCell>
        <UserObject label="" tags="Background" id="103">
          <mxCell style="vsdxID=93;fillColor=none;gradientColor=none;strokeColor=none;spacingTop=-3;spacingBottom=-3;spacingLeft=-3;spacingRight=-3;points=[[0,0.5,0],[1,0.5,0],[0.5,1,0],[0.5,0,0]];labelBackgroundColor=none;rounded=1;html=1;whiteSpace=wrap;" parent="1" vertex="1">
            <mxGeometry x="774" y="915" width="101" height="76" as="geometry" />
          </mxCell>
        </UserObject>
        <mxCell id="104" style="vsdxID=94;fillColor=#FFFFFF;gradientColor=none;shape=stencil(hVLRDoIwDPyavZLSiouPBvUH/AICUxYVyAAFv95JiW5TI0/t7cpdmxOUtmXWKIHQdqY+qZsuulLQRiDqqlRGd7YStBWUHmqjjqbuq4L7JrNMhAlRBc/ETzZCZvK9vivGIKJYJvzAk5f6+lQc5hkAfhy5T7jdMTfvDZPjkD0DUkbJiqEBX9CSZhYGYwN5KjCST5hkYf1FGTEi6Wu//zrLgK/qeiOfQZ/LflUNtrUmFrByPukbcE36nn4t/s+Ae0zf0xDedsQ/Jikc+HUFW0/x4uDp85nT+UqFLcI4WoijTNsH);strokeColor=#3a414a;spacingTop=-3;spacingBottom=-3;spacingLeft=-3;spacingRight=-3;points=[[0,0.5,0],[1,0.5,0],[0.5,1,0],[0.5,0,0]];labelBackgroundColor=none;rounded=1;html=1;whiteSpace=wrap;" parent="103" vertex="1">
          <mxGeometry width="101" height="76" as="geometry" />
        </mxCell>
        <mxCell id="105" value="&lt;div style=&quot;font-size: 1px&quot;&gt;&lt;p style=&quot;text-align:center;margin-left:0;margin-right:0;margin-top:0px;margin-bottom:0px;text-indent:0;vertical-align:middle;direction:ltr;&quot;&gt;&lt;font style=&quot;font-size:11.29px;font-family:Arial;color:#000000;direction:ltr;letter-spacing:0px;line-height:100%;opacity:1&quot;&gt;Forgot Password&lt;/font&gt;&lt;/p&gt;&lt;/div&gt;" style="text;vsdxID=93;fillColor=none;gradientColor=none;strokeColor=none;spacingTop=-3;spacingBottom=-3;spacingLeft=-3;spacingRight=-3;points=[[0,0.5,0],[1,0.5,0],[0.5,1,0],[0.5,0,0]];labelBackgroundColor=none;rounded=1;html=1;whiteSpace=wrap;verticalAlign=middle;align=center;overflow=width;;html=1;" parent="103" vertex="1">
          <mxGeometry y="-0.2" width="101.6" height="76.2" as="geometry" />
        </mxCell>
        <UserObject label="" tags="Background" id="146">
          <mxCell style="vsdxID=95;edgeStyle=none;dashed=1;startArrow=none;endArrow=block;startSize=5;endSize=5;strokeColor=#3a414a;spacingTop=-3;spacingBottom=-3;spacingLeft=-3;spacingRight=-3;verticalAlign=middle;html=1;labelBackgroundColor=#ffffff;rounded=1;" parent="1" edge="1">
            <mxGeometry relative="1" as="geometry">
              <Array as="points" />
              <mxPoint x="774" y="953" as="sourcePoint" />
              <mxPoint x="419" y="863" as="targetPoint" />
            </mxGeometry>
          </mxCell>
        </UserObject>
        <mxCell id="147" value="&lt;div style=&quot;font-size: 1px&quot;&gt;&lt;p style=&quot;text-align:left;margin-left:0;margin-right:0;margin-top:0px;margin-bottom:0px;text-indent:0;vertical-align:middle;direction:ltr;&quot;&gt;&lt;font style=&quot;font-size:11.29px;font-family:Arial;color:#333333;direction:ltr;letter-spacing:0px;line-height:100%;opacity:1&quot;&gt;&lt;b&gt;&amp;lt;&amp;lt;extend&amp;gt;&amp;gt;&lt;/b&gt;&lt;/font&gt;&lt;/p&gt;&lt;/div&gt;" style="text;vsdxID=95;edgeStyle=none;dashed=1;startArrow=none;endArrow=block;startSize=5;endSize=5;strokeColor=none;spacingTop=-3;spacingBottom=-3;spacingLeft=-3;spacingRight=-3;verticalAlign=middle;html=1;labelBackgroundColor=#ffffff;rounded=1;align=left;overflow=width;fillColor=none;gradientColor=none;whiteSpace=wrap;;html=1;" parent="146" vertex="1">
          <mxGeometry width="62.63" height="13.54" relative="1" as="geometry">
            <mxPoint x="-7.315000000000001" y="23.23" as="offset" />
          </mxGeometry>
        </mxCell>
        <UserObject label="" tags="Background" id="148">
          <mxCell style="vsdxID=96;edgeStyle=none;dashed=1;startArrow=none;endArrow=block;startSize=5;endSize=5;strokeColor=#3a414a;spacingTop=-3;spacingBottom=-3;spacingLeft=-3;spacingRight=-3;verticalAlign=middle;html=1;labelBackgroundColor=#ffffff;rounded=1;" parent="1" edge="1">
            <mxGeometry relative="1" as="geometry">
              <Array as="points" />
              <mxPoint x="889" y="1108" as="sourcePoint" />
              <mxPoint x="1014" y="1108" as="targetPoint" />
            </mxGeometry>
          </mxCell>
        </UserObject>
        <mxCell id="149" value="&lt;div style=&quot;font-size: 1px&quot;&gt;&lt;p style=&quot;text-align:left;margin-left:0;margin-right:0;margin-top:0px;margin-bottom:0px;text-indent:0;vertical-align:middle;direction:ltr;&quot;&gt;&lt;font style=&quot;font-size:11.29px;font-family:Arial;color:#333333;direction:ltr;letter-spacing:0px;line-height:100%;opacity:1&quot;&gt;&lt;b&gt;&amp;lt;&amp;lt;include&amp;gt;&amp;gt;&lt;/b&gt;&lt;/font&gt;&lt;/p&gt;&lt;/div&gt;" style="text;vsdxID=96;edgeStyle=none;dashed=1;startArrow=none;endArrow=block;startSize=5;endSize=5;strokeColor=none;spacingTop=-3;spacingBottom=-3;spacingLeft=-3;spacingRight=-3;verticalAlign=middle;html=1;labelBackgroundColor=#ffffff;rounded=1;align=left;overflow=width;fillColor=none;gradientColor=none;whiteSpace=wrap;;html=1;" parent="148" vertex="1">
          <mxGeometry width="65.77" height="13.54" relative="1" as="geometry">
            <mxPoint x="-41.885" y="19.23" as="offset" />
          </mxGeometry>
        </mxCell>
        <UserObject label="" tags="Background" id="150">
          <mxCell style="vsdxID=97;edgeStyle=none;startArrow=none;endArrow=block;startSize=5;endSize=5;strokeColor=#3a414a;spacingTop=-3;spacingBottom=-3;spacingLeft=-3;spacingRight=-3;verticalAlign=middle;html=1;labelBackgroundColor=none;rounded=1;" parent="1" edge="1">
            <mxGeometry relative="1" as="geometry">
              <mxPoint x="-1" as="offset" />
              <Array as="points" />
              <mxPoint x="406" y="1498" as="sourcePoint" />
              <mxPoint x="1244" y="1498" as="targetPoint" />
            </mxGeometry>
          </mxCell>
        </UserObject>
        <UserObject label="" tags="Background" id="106">
          <mxCell style="vsdxID=98;fillColor=none;gradientColor=none;strokeColor=none;spacingTop=-3;spacingBottom=-3;spacingLeft=-3;spacingRight=-3;points=[[0,0.5,0],[1,0.5,0],[0.5,1,0],[0.5,0,0],[1.12,1.39,0],[1.18,0.53,0]];labelBackgroundColor=none;rounded=1;html=1;whiteSpace=wrap;" parent="1" vertex="1">
            <mxGeometry x="304" y="1974" width="101" height="76" as="geometry" />
          </mxCell>
        </UserObject>
        <mxCell id="107" style="vsdxID=99;fillColor=#FFFFFF;gradientColor=none;shape=stencil(hVLRDoIwDPyavZLSiouPBvUH/AICUxYVyAAFv95JiW5TI0/t7cpdmxOUtmXWKIHQdqY+qZsuulLQRiDqqlRGd7YStBWUHmqjjqbuq4L7JrNMhAlRBc/ETzZCZvK9vivGIKJYJvzAk5f6+lQc5hkAfhy5T7jdMTfvDZPjkD0DUkbJiqEBX9CSZhYGYwN5KjCST5hkYf1FGTEi6Wu//zrLgK/qeiOfQZ/LflUNtrUmFrByPukbcE36nn4t/s+Ae0zf0xDedsQ/Jikc+HUFW0/x4uDp85nT+UqFLcI4WoijTNsH);strokeColor=#3a414a;spacingTop=-3;spacingBottom=-3;spacingLeft=-3;spacingRight=-3;points=[[0,0.5,0],[1,0.5,0],[0.5,1,0],[0.5,0,0]];labelBackgroundColor=none;rounded=1;html=1;whiteSpace=wrap;" parent="106" vertex="1">
          <mxGeometry width="101" height="76" as="geometry" />
        </mxCell>
        <mxCell id="108" value="&lt;div style=&quot;font-size: 1px&quot;&gt;&lt;p style=&quot;text-align:center;margin-left:0;margin-right:0;margin-top:0px;margin-bottom:0px;text-indent:0;vertical-align:middle;direction:ltr;&quot;&gt;&lt;font style=&quot;font-size:11.29px;font-family:Arial;color:#000000;direction:ltr;letter-spacing:0px;line-height:100%;opacity:1&quot;&gt;Manage Projects &lt;/font&gt;&lt;/p&gt;&lt;/div&gt;" style="text;vsdxID=98;fillColor=none;gradientColor=none;strokeColor=none;spacingTop=-3;spacingBottom=-3;spacingLeft=-3;spacingRight=-3;points=[[0,0.5,0],[1,0.5,0],[0.5,1,0],[0.5,0,0],[1.12,1.39,0],[1.18,0.53,0]];labelBackgroundColor=none;rounded=1;html=1;whiteSpace=wrap;verticalAlign=middle;align=center;overflow=width;;html=1;" parent="106" vertex="1">
          <mxGeometry y="-0.2" width="101.6" height="76.2" as="geometry" />
        </mxCell>
        <UserObject label="" tags="Background" id="151">
          <mxCell style="vsdxID=100;edgeStyle=none;startArrow=none;endArrow=none;startSize=5;endSize=5;strokeColor=#3a414a;spacingTop=-3;spacingBottom=-3;spacingLeft=-3;spacingRight=-3;verticalAlign=middle;html=1;labelBackgroundColor=none;rounded=1;" parent="1" edge="1">
            <mxGeometry relative="1" as="geometry">
              <mxPoint y="-1" as="offset" />
              <Array as="points" />
              <mxPoint x="405" y="2004" as="sourcePoint" />
              <mxPoint x="520" y="1955" as="targetPoint" />
            </mxGeometry>
          </mxCell>
        </UserObject>
        <UserObject label="" tags="Background" id="152">
          <mxCell style="vsdxID=101;edgeStyle=none;startArrow=none;endArrow=none;startSize=5;endSize=5;strokeColor=#3a414a;spacingTop=-3;spacingBottom=-3;spacingLeft=-3;spacingRight=-3;verticalAlign=middle;html=1;labelBackgroundColor=none;rounded=1;" parent="1" edge="1">
            <mxGeometry relative="1" as="geometry">
              <mxPoint as="offset" />
              <Array as="points" />
              <mxPoint x="406" y="2012" as="sourcePoint" />
              <mxPoint x="526" y="2044" as="targetPoint" />
            </mxGeometry>
          </mxCell>
        </UserObject>
        <UserObject label="" tags="Background" id="153">
          <mxCell style="vsdxID=102;edgeStyle=none;startArrow=none;endArrow=none;startSize=5;endSize=5;strokeColor=#3a414a;spacingTop=-3;spacingBottom=-3;spacingLeft=-3;spacingRight=-3;verticalAlign=middle;html=1;labelBackgroundColor=none;rounded=1;" parent="1" edge="1">
            <mxGeometry relative="1" as="geometry">
              <mxPoint x="-1" y="-1" as="offset" />
              <Array as="points" />
              <mxPoint x="128" y="1319" as="sourcePoint" />
              <mxPoint x="317" y="2212" as="targetPoint" />
            </mxGeometry>
          </mxCell>
        </UserObject>
        <UserObject label="" tags="Background" id="154">
          <mxCell style="vsdxID=103;edgeStyle=none;startArrow=none;endArrow=none;startSize=5;endSize=5;strokeColor=#3a414a;spacingTop=-3;spacingBottom=-3;spacingLeft=-3;spacingRight=-3;verticalAlign=middle;html=1;labelBackgroundColor=none;rounded=1;entryX=0.493;entryY=0.497;entryDx=0;entryDy=0;entryPerimeter=0;" parent="1" edge="1" target="91">
            <mxGeometry relative="1" as="geometry">
              <mxPoint x="-38" as="offset" />
              <Array as="points" />
              <mxPoint x="419" y="2212" as="sourcePoint" />
              <mxPoint x="1168" y="2212" as="targetPoint" />
            </mxGeometry>
          </mxCell>
        </UserObject>
        <UserObject label="" tags="Background" id="109">
          <mxCell style="vsdxID=104;fillColor=none;gradientColor=none;strokeColor=none;spacingTop=-3;spacingBottom=-3;spacingLeft=-3;spacingRight=-3;points=[[0,0.5,0],[1,0.5,0],[0.5,1,0],[0.5,0,0],[0.26,0.81,0]];labelBackgroundColor=none;rounded=1;html=1;whiteSpace=wrap;" parent="1" vertex="1">
            <mxGeometry x="304" y="1765" width="101" height="76" as="geometry" />
          </mxCell>
        </UserObject>
        <mxCell id="110" style="vsdxID=105;fillColor=#FFFFFF;gradientColor=none;shape=stencil(hVLRDoIwDPyavZLSiouPBvUH/AICUxYVyAAFv95JiW5TI0/t7cpdmxOUtmXWKIHQdqY+qZsuulLQRiDqqlRGd7YStBWUHmqjjqbuq4L7JrNMhAlRBc/ETzZCZvK9vivGIKJYJvzAk5f6+lQc5hkAfhy5T7jdMTfvDZPjkD0DUkbJiqEBX9CSZhYGYwN5KjCST5hkYf1FGTEi6Wu//zrLgK/qeiOfQZ/LflUNtrUmFrByPukbcE36nn4t/s+Ae0zf0xDedsQ/Jikc+HUFW0/x4uDp85nT+UqFLcI4WoijTNsH);strokeColor=#3a414a;spacingTop=-3;spacingBottom=-3;spacingLeft=-3;spacingRight=-3;points=[[0,0.5,0],[1,0.5,0],[0.5,1,0],[0.5,0,0]];labelBackgroundColor=none;rounded=1;html=1;whiteSpace=wrap;" parent="109" vertex="1">
          <mxGeometry width="101" height="76" as="geometry" />
        </mxCell>
        <mxCell id="111" value="&lt;div style=&quot;font-size: 1px&quot;&gt;&lt;p style=&quot;text-align:center;margin-left:0;margin-right:0;margin-top:0px;margin-bottom:0px;text-indent:0;vertical-align:middle;direction:ltr;&quot;&gt;&lt;font style=&quot;font-size:11.29px;font-family:Arial;color:#000000;direction:ltr;letter-spacing:0px;line-height:100%;opacity:1&quot;&gt;Manage Bugs and issues&lt;/font&gt;&lt;/p&gt;&lt;/div&gt;" style="text;vsdxID=104;fillColor=none;gradientColor=none;strokeColor=none;spacingTop=-3;spacingBottom=-3;spacingLeft=-3;spacingRight=-3;points=[[0,0.5,0],[1,0.5,0],[0.5,1,0],[0.5,0,0],[0.26,0.81,0]];labelBackgroundColor=none;rounded=1;html=1;whiteSpace=wrap;verticalAlign=middle;align=center;overflow=width;;html=1;" parent="109" vertex="1">
          <mxGeometry y="-0.2" width="101.6" height="76.2" as="geometry" />
        </mxCell>
        <UserObject label="" tags="Background" id="155">
          <mxCell style="vsdxID=106;edgeStyle=none;startArrow=none;endArrow=none;startSize=5;endSize=5;strokeColor=#3a414a;spacingTop=-3;spacingBottom=-3;spacingLeft=-3;spacingRight=-3;verticalAlign=middle;html=1;labelBackgroundColor=none;rounded=1;" parent="1" edge="1">
            <mxGeometry relative="1" as="geometry">
              <mxPoint y="-1" as="offset" />
              <Array as="points" />
              <mxPoint x="406" y="1803" as="sourcePoint" />
              <mxPoint x="425" y="1739" as="targetPoint" />
            </mxGeometry>
          </mxCell>
        </UserObject>
        <UserObject label="" tags="Background" id="156">
          <mxCell style="vsdxID=107;edgeStyle=none;startArrow=none;endArrow=none;startSize=5;endSize=5;strokeColor=#3a414a;spacingTop=-3;spacingBottom=-3;spacingLeft=-3;spacingRight=-3;verticalAlign=middle;html=1;labelBackgroundColor=none;rounded=1;" parent="1" edge="1">
            <mxGeometry relative="1" as="geometry">
              <mxPoint as="offset" />
              <Array as="points" />
              <mxPoint x="404" y="1813" as="sourcePoint" />
              <mxPoint x="431" y="1854" as="targetPoint" />
            </mxGeometry>
          </mxCell>
        </UserObject>
        <UserObject label="" tags="Background" id="157">
          <mxCell style="vsdxID=108;edgeStyle=none;startArrow=none;endArrow=none;startSize=5;endSize=5;strokeColor=#3a414a;spacingTop=-3;spacingBottom=-3;spacingLeft=-3;spacingRight=-3;verticalAlign=middle;html=1;labelBackgroundColor=none;rounded=1;" parent="1" edge="1">
            <mxGeometry relative="1" as="geometry">
              <mxPoint x="-1" y="-1" as="offset" />
              <Array as="points" />
              <mxPoint x="403" y="2026" as="sourcePoint" />
              <mxPoint x="526" y="2136" as="targetPoint" />
            </mxGeometry>
          </mxCell>
        </UserObject>
      </root>
    </mxGraphModel>
  </diagram>
</mxfile>
